<svg width="943" height="313" viewBox="0 0 943 313" fill="none" xmlns="http://www.w3.org/2000/svg">
<mask id="mask0_76_350" style="mask-type:luminance" maskUnits="userSpaceOnUse" x="-92" y="0" width="357" height="313">
<path d="M264.294 0L-92 0L-92 312.458H264.294V0Z" fill="white"/>
</mask>
<g mask="url(#mask0_76_350)">
<path d="M176.966 112.54L172.371 112.614L167.482 117.626C167.482 117.626 167.31 117.798 167.236 117.897C149.618 135.932 121.802 137.456 105.167 121.287C88.5318 105.119 89.2689 77.279 106.789 59.1449L111.924 53.8619L111.851 49.2669L76.1721 14.5713L8.45166 84.2329L23.1703 98.5338L76.5898 43.5662L85.706 52.4367C66.8102 78.4585 68.4073 114.137 90.8907 135.982C113.349 157.826 149.077 158.416 174.558 138.783L183.674 147.653L130.255 202.621L144.974 216.922L212.694 147.26L176.991 112.564L176.966 112.54Z" fill="white"/>
<path d="M133.154 290.195L131.09 292.259V296.682C131.09 296.682 131.09 296.83 131.09 296.903C131.041 312.826 119.099 325.776 104.454 325.776C89.8092 325.776 77.8427 312.826 77.7935 296.903V292.259L75.7295 290.195H44.2527V351.601H57.2268V303.169H65.2618C68.1613 323.294 84.6245 338.75 104.43 338.75C124.235 338.75 140.698 323.294 143.597 303.169H151.632V351.601H164.606V290.195H133.13H133.154Z" fill="white"/>
<path d="M-32.7314 156.278L-34.5497 161.561L-30.8148 169.203C-30.7411 169.326 -30.6919 169.473 -30.6182 169.596C-17.2019 197.141 -26.8341 229.576 -52.1433 241.985C-77.4524 254.394 -109.003 242.157 -122.591 214.71L-126.523 206.675L-131.806 204.857L-186.11 231.493L-134.116 337.496L-111.73 326.513L-152.741 242.894L-138.858 236.088C-116.841 268.375 -75.3147 281.128 -41.1351 264.37C-6.95543 247.612 8.35298 206.97 -3.6873 169.792L10.1959 162.986L51.2065 246.604L73.5916 235.621L21.5973 129.617L-32.7068 156.253L-32.7314 156.278Z" fill="white"/>
<path d="M323.267 156.278L321.449 161.561L325.184 169.203C325.258 169.326 325.307 169.473 325.381 169.596C338.797 197.141 329.165 229.576 303.856 241.985C278.546 254.394 246.996 242.157 233.432 214.71L229.501 206.675L224.218 204.857L169.914 231.493L221.908 337.497L244.293 326.513L203.282 242.894L217.165 236.088C239.182 268.376 280.709 281.128 314.888 264.37C349.068 247.612 364.376 206.97 352.336 169.793L366.219 162.986L407.23 246.605L429.615 235.621L377.621 129.617L323.317 156.253L323.267 156.278Z" fill="white"/>
<path d="M249.109 68.6296L250.215 65.5335L248.077 61.0368C248.077 61.0368 248.003 60.8894 247.954 60.8157C240.263 44.5736 246.16 25.604 261.1 18.5027C276.04 11.4014 294.469 18.773 302.233 34.9905L304.494 39.7329L307.59 40.8386L339.632 25.5794L309.851 -36.9563L296.656 -30.6659L320.147 18.6747L311.964 22.5816C299.26 3.4892 275.008 -4.27555 254.834 5.3321C234.661 14.9398 225.397 38.6763 232.203 60.5699L224.021 64.4769L200.53 15.1363L187.335 21.4268L217.116 83.9625L249.158 68.7033L249.109 68.6296Z" fill="white"/>
</g>
<mask id="mask1_76_350" style="mask-type:luminance" maskUnits="userSpaceOnUse" x="264" y="0" width="357" height="313">
<path d="M620.588 0L264.294 0V312.458H620.588V0Z" fill="white"/>
</mask>
<g mask="url(#mask1_76_350)">
<path d="M533.261 112.54L528.666 112.614L523.776 117.626C523.776 117.626 523.604 117.798 523.53 117.897C505.912 135.932 478.097 137.456 461.461 121.287C444.826 105.119 445.563 77.279 463.083 59.1449L468.219 53.8619L468.145 49.2669L432.466 14.5713L364.746 84.2329L379.465 98.5338L432.884 43.5662L442 52.4367C423.104 78.4585 424.702 114.137 447.185 135.982C469.644 157.826 505.372 158.416 530.853 138.783L539.969 147.653L486.549 202.621L501.268 216.922L568.988 147.26L533.285 112.564L533.261 112.54Z" fill="white"/>
<path d="M489.448 290.195L487.384 292.259V296.682C487.384 296.682 487.384 296.83 487.384 296.903C487.335 312.826 475.393 325.776 460.748 325.776C446.103 325.776 434.137 312.826 434.088 296.903V292.259L432.024 290.195H400.547V351.601H413.521V303.169H421.556C424.455 323.294 440.919 338.75 460.724 338.75C480.529 338.75 496.992 323.294 499.891 303.169H507.927V351.601H520.901V290.195H489.424H489.448Z" fill="white"/>
<path d="M323.563 156.278L321.744 161.561L325.479 169.203C325.553 169.326 325.602 169.473 325.676 169.596C339.092 197.141 329.46 229.576 304.151 241.985C278.842 254.394 247.291 242.157 233.703 214.71L229.771 206.675L224.488 204.857L170.184 231.493L222.179 337.496L244.564 326.513L203.553 242.894L217.436 236.088C239.453 268.375 280.979 281.128 315.159 264.37C349.339 247.612 364.647 206.97 352.607 169.792L366.49 162.986L407.5 246.604L429.886 235.621L377.891 129.617L323.587 156.253L323.563 156.278Z" fill="white"/>
<path d="M679.586 156.278L677.768 161.561L681.503 169.203C681.577 169.326 681.626 169.473 681.7 169.596C695.116 197.141 685.484 229.576 660.174 241.985C634.865 254.394 603.315 242.157 589.751 214.71L585.82 206.675L580.536 204.857L526.232 231.493L578.227 337.496L600.612 326.513L559.601 242.894L573.484 236.088C595.501 268.375 637.003 281.128 671.207 264.37C705.387 247.612 720.695 206.97 708.655 169.792L722.538 162.986L763.549 246.604L785.934 235.621L733.939 129.617L679.635 156.253L679.586 156.278Z" fill="white"/>
<path d="M249.724 68.6296L250.83 65.5335L248.692 61.0368C248.692 61.0368 248.618 60.8894 248.569 60.8157C240.878 44.5736 246.775 25.604 261.715 18.5027C276.655 11.4014 295.084 18.773 302.848 34.9905L305.109 39.7329L308.205 40.8386L340.247 25.5794L310.466 -36.9563L297.271 -30.6659L320.762 18.6747L312.579 22.5816C299.875 3.4892 275.623 -4.27555 255.449 5.3321C235.276 14.9398 226.012 38.6763 232.818 60.5699L224.636 64.4769L201.145 15.1363L187.95 21.4268L217.731 83.9625L249.773 68.7033L249.724 68.6296Z" fill="white"/>
<path d="M605.404 68.6296L606.509 65.5335L604.372 61.0368C604.372 61.0368 604.298 60.8894 604.249 60.8157C596.558 44.5736 602.455 25.604 617.395 18.5027C632.335 11.4014 650.764 18.773 658.528 34.9905L660.789 39.7329L663.885 40.8386L695.927 25.5794L666.146 -36.9563L652.951 -30.6659L676.441 18.6747L668.259 22.5816C655.555 3.4892 631.303 -4.27555 611.129 5.3321C590.955 14.9398 581.692 38.6763 588.498 60.5699L580.316 64.4769L556.825 15.1363L543.63 21.4268L573.411 83.9625L605.453 68.7033L605.404 68.6296Z" fill="white"/>
</g>
<mask id="mask2_76_350" style="mask-type:luminance" maskUnits="userSpaceOnUse" x="620" y="0" width="323" height="313">
<path d="M942.431 0L620.612 0V312.458H942.431V0Z" fill="white"/>
</mask>
<g mask="url(#mask2_76_350)">
<path d="M889.552 112.54L884.957 112.614L880.067 117.626C880.067 117.626 879.895 117.798 879.821 117.897C862.203 135.932 834.388 137.456 817.753 121.287C801.117 105.119 801.855 77.279 819.374 59.1449L824.51 53.8619L824.436 49.2669L788.758 14.5713L721.037 84.2329L735.756 98.5338L789.175 43.5662L798.292 52.4367C779.396 78.4585 780.993 114.137 803.476 135.982C825.935 157.826 861.663 158.416 887.144 138.783L896.26 147.653L842.841 202.621L857.559 216.922L925.28 147.26L889.577 112.564L889.552 112.54Z" fill="white"/>
<path d="M845.74 290.195L843.676 292.259V296.682C843.676 296.682 843.676 296.83 843.676 296.903C843.627 312.826 831.685 325.776 817.04 325.776C802.395 325.776 790.428 312.826 790.379 296.903V292.259L788.315 290.195H756.838V351.601H769.812V303.169H777.847C780.747 323.294 797.21 338.75 817.015 338.75C836.82 338.75 853.283 323.294 856.183 303.169H864.218V351.601H877.192V290.195H845.715H845.74Z" fill="white"/>
<path d="M679.855 156.278L678.036 161.561L681.771 169.203C681.845 169.326 681.894 169.473 681.968 169.596C695.384 197.141 685.752 229.576 660.443 241.985C635.133 254.394 603.583 242.157 589.995 214.71L586.063 206.675L580.78 204.857L526.476 231.493L578.471 337.496L600.856 326.513L559.845 242.894L573.728 236.088C595.745 268.375 637.271 281.128 671.451 264.37C705.631 247.612 720.939 206.97 708.899 169.792L722.782 162.986L763.792 246.604L786.178 235.621L734.183 129.617L679.879 156.253L679.855 156.278Z" fill="white"/>
<path d="M1035.88 156.278L1034.06 161.561L1037.79 169.203C1037.87 169.326 1037.92 169.473 1037.99 169.596C1051.41 197.141 1041.77 229.576 1016.47 241.985C991.157 254.394 959.606 242.157 946.042 214.71L942.111 206.675L936.828 204.857L882.524 231.493L934.518 337.496L956.903 326.513L915.893 242.894L929.776 236.088C951.792 268.375 993.319 281.128 1027.5 264.37C1061.68 247.612 1076.99 206.97 1064.95 169.792L1078.83 162.986L1119.84 246.604L1142.23 235.621L1090.23 129.617L1035.93 156.253L1035.88 156.278Z" fill="white"/>
<path d="M606.015 68.6296L607.121 65.5335L604.983 61.0368C604.983 61.0368 604.909 60.8894 604.86 60.8157C597.169 44.5736 603.066 25.604 618.006 18.5027C632.946 11.4014 651.375 18.773 659.14 34.9905L661.4 39.7329L664.497 40.8386L696.538 25.5794L666.757 -36.9563L653.562 -30.6659L677.053 18.6747L668.87 22.5816C656.167 3.4892 631.914 -4.27555 611.74 5.3321C591.567 14.9398 582.303 38.6763 589.11 60.5699L580.927 64.4769L557.436 15.1363L544.241 21.4268L574.022 83.9625L606.064 68.7033L606.015 68.6296Z" fill="white"/>
<path d="M961.694 68.6296L962.8 65.5335L960.662 61.0368C960.662 61.0368 960.589 60.8894 960.539 60.8157C952.848 44.5736 958.746 25.604 973.685 18.5027C988.625 11.4014 1007.05 18.773 1014.82 34.9905L1017.08 39.7329L1020.18 40.8386L1052.22 25.5794L1022.44 -36.9563L1009.24 -30.6659L1032.73 18.6747L1024.55 22.5816C1011.85 3.4892 987.593 -4.27555 967.42 5.3321C947.246 14.9398 937.982 38.6763 944.789 60.5699L936.606 64.4769L913.116 15.1363L899.92 21.4268L929.702 83.9625L961.743 68.7033L961.694 68.6296Z" fill="white"/>
</g>
</svg>
