<svg width="241" height="36" viewBox="0 0 241 36" fill="none" xmlns="http://www.w3.org/2000/svg">
<path d="M75.9888 30.838H79.0329V31.3598H75.9888V34.4162H75.4173V31.3598H72.3608V30.838H75.4173V27.7815H75.9888V30.838Z" fill="#16191B"/>
<path d="M89.2333 28.8499L87.0963 35.174H86.152L84.4001 30.142L82.6483 35.174H81.7288L79.5918 28.8499H80.6727L82.201 33.9067L83.9156 28.8499H84.9095L86.6241 33.9067L88.1399 28.8499H89.2333Z" fill="#16191B"/>
<path d="M96.3658 32.0182C96.3658 33.9688 94.9245 35.3853 92.949 35.3853C90.9735 35.3853 89.5322 33.9813 89.5322 32.0182C89.5322 30.0551 90.9859 28.6511 92.949 28.6511C94.9121 28.6511 96.3658 30.0551 96.3658 32.0182ZM90.5635 32.0182C90.5635 33.4719 91.5699 34.4161 92.949 34.4161C94.3281 34.4161 95.3345 33.4719 95.3345 32.0182C95.3345 30.5645 94.3281 29.6202 92.949 29.6202C91.5699 29.6202 90.5635 30.5645 90.5635 32.0182Z" fill="#16191B"/>
<path d="M100.862 29.7942H100.676C99.3342 29.7942 98.5887 30.6391 98.5887 32.2046V35.1741H97.6072V28.8499H98.5887V30.2788H98.6136C98.8745 29.3345 99.6448 28.6636 100.701 28.6636H100.862V29.7942Z" fill="#16191B"/>
<path d="M102.801 25.5947H101.819V35.1741H102.801V25.5947Z" fill="#16191B"/>
<path d="M104.068 32.0183C104.068 29.9309 105.46 28.6512 107.199 28.6512C108.342 28.6512 109.15 29.1855 109.597 29.9807H109.622V25.6072H110.604V35.1866H109.622V34.0683H109.597C109.162 34.8635 108.355 35.3978 107.199 35.3978C105.46 35.3978 104.068 34.1305 104.068 32.0307M109.672 32.0307C109.672 30.6392 108.765 29.6328 107.386 29.6328C106.007 29.6328 105.1 30.6267 105.1 32.0307C105.1 33.4347 106.007 34.4287 107.386 34.4287C108.765 34.4287 109.672 33.4347 109.672 32.0307Z" fill="#16191B"/>
<path d="M78.8213 4.16235C82.4492 4.16235 85.3814 6.82122 85.3814 10.4492C85.3814 14.0772 82.3995 16.7609 79.0201 16.7609C77.4297 16.7609 75.889 16.3136 74.7336 14.9966H74.5969V24.1411H72.1865V11.4432C72.1865 7.00757 74.746 4.16235 78.8337 4.16235M78.7964 14.6363C81.1944 14.6363 82.8344 12.7353 82.8344 10.4368C82.8344 8.13821 81.2316 6.27451 78.7964 6.27451C76.3612 6.27451 74.6839 8.13822 74.6839 10.4119C74.6839 12.6856 76.3736 14.6238 78.7964 14.6238V14.6363Z" fill="#010101"/>
<path d="M87.6179 10.4616C87.6179 6.83361 90.6495 4.16235 94.2278 4.16235C97.8061 4.16235 100.838 6.83361 100.838 10.4616C100.838 14.0896 97.8061 16.7609 94.2278 16.7609C90.6495 16.7609 87.6179 14.0896 87.6179 10.4616ZM94.2278 14.6363C96.6382 14.6363 98.2782 12.7726 98.2782 10.4616C98.2782 8.15062 96.6382 6.28695 94.2278 6.28695C91.8174 6.28695 90.1774 8.1382 90.1774 10.4616C90.1774 12.785 91.8174 14.6363 94.2278 14.6363Z" fill="#010101"/>
<path d="M109.758 16.7609C105.956 16.7609 103.074 14.102 103.074 10.4616C103.074 6.82119 105.882 4.16235 109.671 4.16235C112.566 4.16235 115.275 5.72783 115.971 8.72216H113.486C112.877 7.11939 111.436 6.28695 109.734 6.28695C107.174 6.28695 105.621 8.18789 105.621 10.4989C105.621 12.8098 107.224 14.6363 109.783 14.6363C111.436 14.6363 112.939 13.8784 113.523 12.1389H116.02C115.126 15.3196 112.529 16.7609 109.734 16.7609" fill="#010101"/>
<path d="M125.004 15.0213L121.028 6.70922H120.966V16.4998H118.63V4.4231H122.345L126.284 12.6854H126.346L130.284 4.4231H133.999V16.4998H131.664V6.70922H131.601L127.626 15.0213H125.004Z" fill="#010101"/>
<path d="M136.584 10.4616C136.584 6.83361 139.628 4.16235 143.194 4.16235C146.76 4.16235 149.804 6.83361 149.804 10.4616C149.804 14.0896 146.76 16.7609 143.194 16.7609C139.628 16.7609 136.584 14.0896 136.584 10.4616ZM143.194 14.6363C145.604 14.6363 147.244 12.7726 147.244 10.4616C147.244 8.15062 145.604 6.28695 143.194 6.28695C140.784 6.28695 139.143 8.1382 139.143 10.4616C139.143 12.785 140.784 14.6363 143.194 14.6363Z" fill="#010101"/>
<path d="M151.033 16.5993V14.102H151.082C151.542 14.102 152.114 13.8907 152.462 13.4931C152.909 12.9962 153.132 12.0892 153.381 10.7846L153.729 8.84635C154.126 6.62234 154.922 4.36108 158.264 4.36108H162.973V16.4999H160.562V6.60993H158.686C156.81 6.60993 156.413 7.13175 155.953 9.70365L155.642 11.5176C155.369 13.1701 154.946 14.6114 154.089 15.5184C153.431 16.2141 152.524 16.6117 151.294 16.6117H151.033V16.5993Z" fill="#010101"/>
<path d="M165.645 10.4616C165.645 6.83361 168.676 4.16235 172.254 4.16235C175.833 4.16235 178.864 6.83361 178.864 10.4616C178.864 14.0896 175.833 16.7609 172.254 16.7609C168.676 16.7609 165.645 14.0896 165.645 10.4616ZM172.254 14.6363C174.665 14.6363 176.305 12.7726 176.305 10.4616C176.305 8.15062 174.665 6.28695 172.254 6.28695C169.844 6.28695 168.204 8.1382 168.204 10.4616C168.204 12.785 169.844 14.6363 172.254 14.6363Z" fill="#010101"/>
<path d="M181.672 19.4321H179.336V14.2511H180.902C181.598 13.4807 181.958 12.3128 182.281 10.9213L182.803 8.67242C183.3 6.51054 184.232 4.36108 187.226 4.36108H191.923V14.2511H193.662V19.4321H191.326V16.4999H181.66V19.4321H181.672ZM189.537 14.3008V6.57266H187.276C185.81 6.57266 185.313 7.753 185.014 8.98304L184.48 11.3188C184.182 12.611 183.735 13.6795 183.287 14.1268V14.3008H189.537Z" fill="#010101"/>
<path d="M202.099 16.7608C198.247 16.7608 195.452 14.1019 195.452 10.4615C195.452 6.82108 198.26 4.16225 202.012 4.16225C204.907 4.16225 208.398 6.06321 208.398 10.6479V11.1449H197.875C198.136 13.1701 199.701 14.6362 202.087 14.6362C203.503 14.6362 205.193 14.1144 205.665 12.8967H208.15C207.392 15.5556 204.584 16.7608 202.112 16.7608M197.912 0H200.409V2.49736H197.912V0ZM205.889 9.30601C205.503 7.4796 204.087 6.24957 201.987 6.24957C199.887 6.24957 198.434 7.56657 197.987 9.30601H205.889ZM203.354 0H205.851V2.49736H203.354V0Z" fill="#010101"/>
<path d="M219.791 4.4231V9.21897H221.816L224.661 4.4231H227.32L223.779 10.1881L227.606 16.4998H224.897L221.853 11.4057H219.791V16.4998H217.517V11.4057H215.467L212.41 16.4998H209.702L213.529 10.1881L209.988 4.4231H212.647L215.492 9.21897H217.517V4.4231H219.791Z" fill="#010101"/>
<path d="M229.308 11.0703L229.271 4.4231H231.681V7.8523H231.768C232.787 6.60984 234.079 6.00101 235.632 6.00101C238.602 6.00101 241 8.2126 241 11.2939C241 14.3752 238.552 16.7483 235.185 16.7483C231.818 16.7483 229.321 14.3503 229.296 11.0578M235.135 14.6361C237.049 14.6361 238.453 13.2943 238.453 11.4057C238.453 9.51718 237.061 8.15048 235.135 8.15048C233.21 8.15048 231.843 9.5296 231.843 11.4057C231.843 13.2818 233.247 14.6361 235.135 14.6361Z" fill="#010101"/>
<path d="M44.2564 4.5847L43.2252 5.60353V7.80267C43.2252 7.80267 43.2252 7.87721 43.2252 7.91449C43.2003 15.8538 37.2614 22.3022 29.9557 22.3022C22.65 22.3022 16.6987 15.8538 16.6862 7.91449V5.59109L15.6674 4.57227H0V35.1616H6.46081V11.0206H10.4615C11.9028 21.0473 20.103 28.7505 29.9682 28.7505C39.8333 28.7505 48.0335 21.0473 49.4748 11.0206H53.4755V35.1616H59.9363V4.57227H44.2564V4.5847Z" fill="#7E66AD"/>
</svg>
