<svg width="183" height="174" viewBox="0 0 183 174" fill="none" xmlns="http://www.w3.org/2000/svg">
<g clip-path="url(#clip0_76_2856)">
<g filter="url(#filter0_d_76_2856)">
<path d="M129.304 60.0047L157.538 143.772L148.906 152.937L120.006 104.879L100.493 88.8515L129.304 60.0047Z" fill="#484749"/>
<path d="M117.216 48.5488L32.2854 24.9965L23.6528 34.162L73.0983 60.3988L90.1543 79.042L117.216 48.5488Z" fill="#484749"/>
<path d="M146.443 118.064C143.684 120.992 143.821 125.614 146.742 128.381C149.664 131.148 154.266 131.021 157.025 128.094L164.515 120.139C167.274 117.211 167.137 112.589 164.215 109.822C161.294 107.055 156.691 107.182 153.932 110.109L146.436 118.065L146.443 118.064Z" fill="#484749"/>
<path d="M135.418 92.5519C132.659 95.4792 132.789 100.103 135.71 102.87C138.633 105.643 143.241 105.509 145.993 102.582L153.483 94.6274C156.242 91.7 156.105 87.0776 153.184 84.3107C150.261 81.5368 145.66 81.6706 142.901 84.5979L135.411 92.5529L135.418 92.5519Z" fill="#484749"/>
<path d="M58.489 34.6625C55.73 37.5899 51.1274 37.7167 48.2059 34.9498C45.2835 32.1759 45.1548 27.5595 47.9068 24.6331L55.4032 16.6772C58.1621 13.7498 62.7647 13.623 65.6862 16.3899C68.6076 19.1568 68.7374 23.7802 65.9784 26.7076L58.489 34.6625Z" fill="#484749"/>
<path d="M84.4997 44.2641C81.7407 47.1915 77.1381 47.3182 74.2167 44.5513C71.2953 41.7844 71.1586 37.162 73.9245 34.2337L81.4139 26.2787C84.1729 23.3514 88.7755 23.2246 91.6969 25.9915C94.6183 28.7584 94.7481 33.3818 91.9891 36.3092L84.4997 44.2641Z" fill="#484749"/>
<path d="M131.812 57.3469L160.045 141.107L151.419 150.271L122.512 102.215L102.999 86.1867L131.812 57.3469Z" fill="#EBF0F0"/>
<path d="M119.73 45.883L34.7929 22.3387L26.1593 31.4973L75.6047 57.734L92.6617 76.3842L119.73 45.883Z" fill="#EBF0F0"/>
<path d="M63.6184 126.542C63.6184 126.542 45.1654 138.936 40.3726 142.09C42.1845 140.112 44.0044 138.139 45.8093 136.162C49.876 131.739 53.9427 127.315 58.0024 122.893C53.9357 127.316 49.876 131.739 45.8093 136.162C43.9964 138.133 42.1845 140.112 40.3647 142.084C43.1098 137.029 53.9229 117.567 53.9229 117.567C61.3212 104.616 80.33 81.7474 97.4793 62.1097C114.636 42.4711 129.94 26.0689 129.94 26.0689C141.745 13.4995 149.821 9.84797 154.817 9.20506C158.978 8.66716 161.005 10.2245 161.279 10.4543C161.279 10.4543 161.28 10.4612 161.296 10.4731C161.304 10.4791 161.311 10.485 161.312 10.492C161.495 10.6782 162.462 11.7501 162.891 13.9602C163.751 18.4014 162.442 27.4124 148.343 43.0904C148.343 43.0904 133.291 59.7254 115.179 78.4745C97.068 97.2235 75.8838 118.089 63.6253 126.541L63.6184 126.542Z" fill="white"/>
<path d="M53.4077 128.722C53.4077 128.722 69.3977 159.321 67.453 162.846L64.1779 167.609L38.4923 141.509L53.4136 128.714L53.4077 128.722Z" fill="#EBF0F0"/>
<path d="M53.1461 128.477C53.1461 128.477 21.8029 114.188 18.4009 116.33L13.8419 119.882L41.2592 144.136L53.1451 128.47L53.1461 128.477Z" fill="#EBF0F0"/>
<path d="M128.818 48.0803C128.637 47.9079 128.681 47.5691 128.902 47.3323C129.13 47.0946 129.462 47.0401 129.642 47.2125L129.937 47.4958C130.117 47.6682 130.074 48.007 129.846 48.2447C129.618 48.4825 129.286 48.537 129.113 48.3636L128.818 48.0803Z" fill="white"/>
<path d="M127.354 50.2211L127.059 49.9378C126.879 49.7654 126.916 49.4276 127.143 49.1899C127.371 48.9521 127.703 48.8976 127.883 49.07L128.179 49.3533C128.359 49.5257 128.322 49.8635 128.088 50.1023C127.86 50.34 127.528 50.3945 127.348 50.2221L127.354 50.2211Z" fill="white"/>
<path d="M125.715 51.9696L125.42 51.6862C125.239 51.5139 125.283 51.1751 125.511 50.9373C125.739 50.6995 126.071 50.6451 126.251 50.8174L126.546 51.1008C126.726 51.2731 126.689 51.604 126.455 51.8497C126.227 52.0875 125.895 52.1419 125.715 51.9696Z" fill="white"/>
<path d="M123.847 53.949L123.551 53.6656C123.371 53.4933 123.408 53.1554 123.636 52.9177C123.87 52.6789 124.195 52.6254 124.376 52.7978L124.671 53.0811C124.851 53.2535 124.815 53.5913 124.587 53.8291C124.359 54.0668 124.027 54.1213 123.847 53.949Z" fill="white"/>
<path d="M122.022 55.8866L121.727 55.6032C121.546 55.4309 121.583 55.0931 121.818 54.8543C122.046 54.6165 122.377 54.5621 122.558 54.7344L122.86 55.0168C123.04 55.1892 123.003 55.527 122.769 55.7657C122.541 56.0035 122.209 56.058 122.029 55.8856L122.022 55.8866Z" fill="white"/>
<path d="M120.271 57.7501L119.976 57.4667C119.796 57.2944 119.833 56.9635 120.06 56.7188C120.288 56.481 120.62 56.4266 120.8 56.5989L121.095 56.8823C121.276 57.0546 121.239 57.3924 121.004 57.6312C120.776 57.8689 120.445 57.9234 120.264 57.7511L120.271 57.7501Z" fill="white"/>
<path d="M118.624 59.4926L118.329 59.2093C118.148 59.0369 118.185 58.6991 118.413 58.4614C118.641 58.2236 118.972 58.1691 119.153 58.3415L119.448 58.6248C119.628 58.7972 119.592 59.135 119.357 59.3737C119.129 59.6115 118.797 59.666 118.617 59.4936L118.624 59.4926Z" fill="white"/>
<path d="M116.762 61.4709L116.467 61.1876C116.287 61.0152 116.324 60.6774 116.551 60.4397C116.779 60.2019 117.111 60.1474 117.291 60.3198L117.587 60.6031C117.767 60.7755 117.73 61.1133 117.502 61.3511C117.275 61.5888 116.943 61.6433 116.762 61.4709Z" fill="white"/>
<path d="M115.024 63.3185L114.729 63.0352C114.548 62.8628 114.592 62.524 114.82 62.2862C115.048 62.0485 115.379 61.994 115.56 62.1663L115.855 62.4497C116.035 62.6221 115.999 62.9599 115.771 63.1976C115.543 63.4354 115.211 63.4899 115.031 63.3175L115.024 63.3185Z" fill="white"/>
<path d="M113.266 65.1828L112.971 64.8995C112.791 64.7271 112.827 64.3893 113.055 64.1516C113.283 63.9138 113.615 63.8593 113.795 64.0317L114.091 64.315C114.271 64.4874 114.234 64.8252 114.006 65.063C113.778 65.3007 113.447 65.3552 113.265 65.1759L113.266 65.1828Z" fill="white"/>
<path d="M111.626 66.9244L111.331 66.6411C111.15 66.4687 111.188 66.1378 111.415 65.8931C111.65 65.6544 111.982 65.5999 112.155 65.7733L112.458 66.0625C112.638 66.2349 112.602 66.5727 112.367 66.8115C112.139 67.0492 111.807 67.1037 111.627 66.9313L111.626 66.9244Z" fill="white"/>
<path d="M109.764 68.9028L109.469 68.6195C109.289 68.4471 109.325 68.1093 109.56 67.8705C109.788 67.6328 110.12 67.5783 110.3 67.7507L110.595 68.034C110.776 68.2064 110.739 68.5442 110.504 68.7829C110.276 69.0207 109.945 69.0752 109.764 68.9028Z" fill="white"/>
<path d="M107.934 70.8485L107.638 70.5651C107.458 70.3928 107.495 70.0549 107.723 69.8172C107.95 69.5794 108.282 69.5249 108.463 69.6973L108.758 69.9806C108.938 70.153 108.901 70.4908 108.667 70.7296C108.439 70.9673 108.107 71.0218 107.927 70.8494L107.934 70.8485Z" fill="white"/>
<path d="M106.183 72.7119L105.888 72.4285C105.707 72.2562 105.744 71.9184 105.979 71.6796C106.207 71.4419 106.539 71.3874 106.719 71.5597L107.014 71.8431C107.194 72.0154 107.158 72.3533 106.923 72.592C106.695 72.8298 106.363 72.8842 106.183 72.7119Z" fill="white"/>
<path d="M104.542 74.4534L104.247 74.17C104.067 73.9976 104.104 73.6598 104.331 73.4221C104.559 73.1843 104.891 73.1298 105.071 73.3022L105.367 73.5855C105.547 73.7579 105.51 74.0957 105.282 74.3335C105.048 74.5722 104.723 74.6257 104.542 74.4534Z" fill="white"/>
<path d="M102.674 76.4327L102.379 76.1494C102.199 75.977 102.235 75.6392 102.47 75.4005C102.698 75.1627 103.03 75.1082 103.21 75.2806L103.505 75.5639C103.686 75.7363 103.649 76.0741 103.421 76.3119C103.193 76.5496 102.861 76.6041 102.681 76.4317L102.674 76.4327Z" fill="white"/>
<path d="M100.751 78.4764L100.456 78.1931C100.276 78.0207 100.312 77.6829 100.547 77.4442C100.775 77.2064 101.107 77.1519 101.287 77.3243L101.582 77.6076C101.763 77.78 101.726 78.1178 101.498 78.3556C101.263 78.5943 100.939 78.6478 100.758 78.4754L100.751 78.4764Z" fill="white"/>
<path d="M98.9997 80.3329L98.7045 80.0495C98.5242 79.8772 98.5609 79.5394 98.7887 79.3016C99.0166 79.0638 99.3484 79.0094 99.5287 79.1817L99.8239 79.4651C100.004 79.6374 99.9676 79.9752 99.7397 80.213C99.5119 80.4508 99.18 80.5052 98.9997 80.3329Z" fill="white"/>
<path d="M97.3603 82.0813L97.0651 81.798C96.8848 81.6256 96.9215 81.2878 97.1563 81.0491C97.3841 80.8113 97.716 80.7568 97.8973 80.9362L98.1925 81.2195C98.3728 81.3919 98.3361 81.7297 98.1083 81.9674C97.8804 82.2052 97.5485 82.2597 97.3682 82.0873L97.3603 82.0813Z" fill="white"/>
<path d="M95.4917 84.0607L95.1896 83.7783C95.0093 83.606 95.0469 83.2751 95.2807 83.0294C95.5086 82.7916 95.8405 82.7372 96.0208 82.9095L96.316 83.1929C96.4963 83.3652 96.4527 83.704 96.2318 83.9408C96.0039 84.1786 95.672 84.233 95.4917 84.0607Z" fill="white"/>
<path d="M93.6671 85.9984L93.3719 85.715C93.1916 85.5427 93.2283 85.2049 93.463 84.9661C93.6909 84.7284 94.0228 84.6739 94.2031 84.8462L94.4983 85.1296C94.6786 85.3019 94.6409 85.6328 94.4071 85.8785C94.1793 86.1163 93.8474 86.1707 93.6671 85.9984Z" fill="white"/>
<path d="M91.9165 87.8618L91.6212 87.5785C91.4409 87.4061 91.4776 87.0683 91.7055 86.8305C91.9333 86.5928 92.2652 86.5383 92.4455 86.7107L92.7407 86.994C92.921 87.1664 92.8833 87.4972 92.6565 87.7419C92.4286 87.9797 92.0968 88.0342 91.9165 87.8618Z" fill="white"/>
<path d="M90.2691 89.6044L89.9739 89.321C89.7936 89.1487 89.8313 88.8178 90.0651 88.5721C90.2929 88.3344 90.6248 88.2799 90.8051 88.4522L91.1003 88.7356C91.2806 88.9079 91.2439 89.2458 91.0161 89.4835C90.7882 89.7213 90.4564 89.7758 90.2751 89.5964L90.2691 89.6044Z" fill="white"/>
<path d="M88.4008 91.5837L88.1056 91.3004C87.9253 91.128 87.962 90.7902 88.1898 90.5525C88.4177 90.3147 88.7496 90.2602 88.9298 90.4326L89.2251 90.7159C89.4054 90.8883 89.3687 91.2261 89.1409 91.4639C88.913 91.7016 88.5811 91.7561 88.4008 91.5837Z" fill="white"/>
<path d="M86.9763 93.1034L86.6811 92.8201C86.5008 92.6477 86.5443 92.3089 86.7722 92.0712C87.0001 91.8334 87.3319 91.7789 87.5122 91.9513L87.8074 92.2346C87.9877 92.407 87.9441 92.7458 87.7232 92.9826C87.4954 93.2203 87.1635 93.2748 86.9822 93.0955L86.9763 93.1034Z" fill="white"/>
<path d="M85.2257 94.9669L84.9295 94.6766C84.7492 94.5042 84.7928 94.1654 85.0207 93.9277C85.2485 93.6899 85.5804 93.6354 85.7607 93.8078L86.0559 94.0911C86.2362 94.2635 86.1995 94.6013 85.9648 94.8401C85.7369 95.0778 85.405 95.1323 85.2247 94.9599L85.2257 94.9669Z" fill="white"/>
<path d="M83.5782 96.7093L83.283 96.426C83.1027 96.2536 83.1403 95.9227 83.3672 95.678C83.595 95.4403 83.9269 95.3858 84.1072 95.5582L84.4024 95.8415C84.5827 96.0139 84.5381 96.3458 84.3113 96.5904C84.0834 96.8282 83.7516 96.8827 83.5713 96.7103L83.5782 96.7093Z" fill="white"/>
<path d="M81.7168 98.6877L81.4215 98.4044C81.2412 98.232 81.2779 97.8942 81.5127 97.6555C81.7405 97.4177 82.0724 97.3632 82.2527 97.5356L82.5479 97.8189C82.7282 97.9913 82.6846 98.3301 82.4568 98.5679C82.2289 98.8056 81.8971 98.8601 81.7168 98.6877Z" fill="white"/>
<path d="M79.885 100.626L79.5898 100.343C79.4095 100.171 79.4461 99.8329 79.674 99.5951C79.9018 99.3574 80.2337 99.3029 80.414 99.4753L80.7092 99.7586C80.8895 99.931 80.8519 100.262 80.6171 100.501C80.3892 100.738 80.0574 100.793 79.8771 100.62L79.885 100.626Z" fill="white"/>
<path d="M78.1346 102.49L77.8394 102.206C77.6591 102.034 77.7027 101.695 77.9305 101.457C78.1584 101.22 78.4833 101.166 78.6706 101.338L78.9668 101.628C79.1471 101.8 79.1094 102.131 78.8826 102.376C78.6547 102.614 78.3228 102.668 78.1426 102.496L78.1346 102.49Z" fill="white"/>
<path d="M76.4948 104.238L76.1986 103.948C76.0183 103.776 76.0619 103.437 76.2898 103.199C76.5176 102.961 76.8495 102.907 77.0298 103.079L77.325 103.363C77.5053 103.535 77.4617 103.874 77.2339 104.112C77.006 104.349 76.6742 104.404 76.4939 104.231L76.4948 104.238Z" fill="white"/>
<path d="M74.6267 106.218L74.3315 105.934C74.1512 105.762 74.1878 105.424 74.4157 105.186C74.6435 104.949 74.9754 104.894 75.1557 105.066L75.4509 105.35C75.6312 105.522 75.5946 105.86 75.3598 106.099C75.1319 106.336 74.8 106.391 74.6197 106.219L74.6267 106.218Z" fill="white"/>
<path d="M129.367 47.4711L129.681 47.7376C129.868 47.902 129.844 48.2309 129.625 48.4816C129.405 48.7253 129.068 48.7946 128.882 48.6302L128.568 48.3637C128.382 48.1992 128.405 47.8703 128.625 47.6266C128.845 47.3829 129.175 47.3146 129.368 47.478L129.367 47.4711Z" fill="white"/>
<path d="M127.617 49.3345L127.931 49.601C128.117 49.7654 128.093 50.0943 127.874 50.3449C127.655 50.5886 127.325 50.657 127.131 50.4935L126.824 50.2261C126.638 50.0616 126.662 49.7327 126.881 49.4821C127.101 49.2384 127.438 49.169 127.624 49.3335L127.617 49.3345Z" fill="white"/>
<path d="M125.977 51.076L126.291 51.3425C126.477 51.507 126.454 51.8428 126.234 52.0865C126.014 52.3302 125.677 52.3996 125.491 52.2351L125.184 51.9676C124.998 51.8032 125.022 51.4743 125.24 51.2237C125.46 50.98 125.797 50.9106 125.983 51.0751L125.977 51.076Z" fill="white"/>
<path d="M124.108 53.0554L124.423 53.3288C124.616 53.4922 124.586 53.8221 124.367 54.0728C124.147 54.3165 123.81 54.3858 123.624 54.2213L123.317 53.9539C123.13 53.7894 123.154 53.4605 123.373 53.2099C123.592 52.9593 123.93 52.8968 124.116 53.0613L124.108 53.0554Z" fill="white"/>
<path d="M122.283 54.993L122.59 55.2605C122.777 55.425 122.753 55.7539 122.534 56.0045C122.314 56.2482 121.984 56.3165 121.791 56.1531L121.477 55.8866C121.284 55.7231 121.314 55.3933 121.533 55.1426C121.753 54.8989 122.09 54.8296 122.276 54.994L122.283 54.993Z" fill="white"/>
<path d="M120.533 56.8564L120.84 57.1239C121.026 57.2884 121.002 57.6173 120.783 57.8679C120.564 58.1116 120.234 58.1799 120.04 58.0165L119.726 57.75C119.54 57.5856 119.564 57.2567 119.783 57.006C120.003 56.7623 120.34 56.693 120.526 56.8574L120.533 56.8564Z" fill="white"/>
<path d="M118.892 58.598L119.199 58.8655C119.386 59.03 119.363 59.3658 119.143 59.6095C118.923 59.8532 118.593 59.9216 118.4 59.7581L118.086 59.4916C117.9 59.3272 117.923 58.9983 118.143 58.7546C118.363 58.5109 118.7 58.4415 118.886 58.606L118.892 58.598Z" fill="white"/>
<path d="M117.031 60.5764L117.338 60.8439C117.524 61.0083 117.5 61.3372 117.281 61.5879C117.055 61.8326 116.725 61.9009 116.538 61.7365L116.231 61.469C116.038 61.3055 116.069 60.9756 116.288 60.725C116.508 60.4813 116.845 60.412 117.031 60.5764Z" fill="white"/>
<path d="M115.292 62.4239L115.599 62.6914C115.786 62.8559 115.762 63.1848 115.543 63.4354C115.323 63.6791 114.993 63.7475 114.8 63.584L114.493 63.3165C114.3 63.1531 114.33 62.8232 114.549 62.5725C114.769 62.3288 115.099 62.2605 115.292 62.4239Z" fill="white"/>
<path d="M113.541 64.2805L113.848 64.5479C114.041 64.7114 114.01 65.0413 113.791 65.2919C113.571 65.5356 113.242 65.604 113.048 65.4405L112.741 65.173C112.548 65.0096 112.579 64.6797 112.798 64.429C113.018 64.1853 113.354 64.116 113.541 64.2805Z" fill="white"/>
<path d="M111.901 66.0289L112.208 66.2964C112.395 66.4608 112.371 66.7897 112.152 67.0404C111.932 67.2841 111.595 67.3534 111.409 67.189L111.095 66.9225C110.902 66.759 110.932 66.4291 111.151 66.1785C111.371 65.9348 111.701 65.8664 111.894 66.0299L111.901 66.0289Z" fill="white"/>
<path d="M110.04 68.0072L110.347 68.2747C110.533 68.4391 110.509 68.768 110.29 69.0187C110.07 69.2624 109.74 69.3307 109.547 69.1672L109.233 68.9008C109.047 68.7363 109.071 68.4074 109.29 68.1568C109.51 67.9131 109.84 67.8447 110.033 68.0082L110.04 68.0072Z" fill="white"/>
<path d="M108.208 69.946L108.515 70.2134C108.701 70.3779 108.679 70.7137 108.459 70.9574C108.239 71.2011 107.902 71.2705 107.716 71.106L107.408 70.8316C107.221 70.6672 107.245 70.3383 107.464 70.0876C107.683 69.837 108.014 69.7756 108.207 69.939L108.208 69.946Z" fill="white"/>
<path d="M106.456 71.8024L106.764 72.0699C106.957 72.2334 106.926 72.5633 106.707 72.8139C106.487 73.0576 106.157 73.1259 105.964 72.9625L105.657 72.695C105.471 72.5306 105.495 72.2017 105.713 71.951C105.933 71.7073 106.27 71.638 106.456 71.8024Z" fill="white"/>
<path d="M104.817 73.5509L105.131 73.8174C105.317 73.9818 105.293 74.3107 105.074 74.5614C104.855 74.8051 104.518 74.8744 104.331 74.71L104.017 74.4435C103.831 74.279 103.855 73.9501 104.074 73.6995C104.294 73.4558 104.624 73.3874 104.817 73.5509Z" fill="white"/>
<path d="M102.948 75.5302L103.262 75.7967C103.449 75.9611 103.425 76.29 103.206 76.5406C102.986 76.7843 102.656 76.8527 102.463 76.6892L102.149 76.4228C101.963 76.2583 101.987 75.9294 102.206 75.6857C102.426 75.442 102.763 75.3727 102.949 75.5371L102.948 75.5302Z" fill="white"/>
<path d="M101.032 77.566L101.346 77.8325C101.532 77.997 101.508 78.3259 101.289 78.5765C101.069 78.8202 100.733 78.8896 100.546 78.7251L100.239 78.4576C100.046 78.2942 100.077 77.9643 100.296 77.7136C100.516 77.4699 100.845 77.4016 101.039 77.5651L101.032 77.566Z" fill="white"/>
<path d="M99.2811 79.4294L99.5951 79.6959C99.7814 79.8603 99.7576 80.1892 99.5307 80.4339C99.3108 80.6776 98.9809 80.746 98.7877 80.5825L98.4737 80.316C98.2805 80.1525 98.3102 79.8157 98.5302 79.572C98.7501 79.3283 99.0869 79.259 99.2732 79.4234L99.2811 79.4294Z" fill="white"/>
<path d="M97.6406 81.171L97.9546 81.4375C98.1478 81.6009 98.1171 81.9308 97.8902 82.1755C97.6703 82.4192 97.3404 82.4876 97.1542 82.3231L96.8391 82.0497C96.6529 81.8853 96.6767 81.5564 96.8956 81.3057C97.1155 81.062 97.4524 80.9927 97.6386 81.1571L97.6406 81.171Z" fill="white"/>
<path d="M95.7722 83.1503L96.0793 83.4178C96.2724 83.5813 96.2427 83.9181 96.0228 84.1618C95.8029 84.4055 95.466 84.4748 95.2798 84.3104L94.9727 84.0429C94.7795 83.8794 94.8102 83.5496 95.0292 83.2989C95.2491 83.0552 95.579 82.9869 95.7722 83.1503Z" fill="white"/>
<path d="M93.9475 85.0881L94.2546 85.3555C94.4477 85.519 94.417 85.8489 94.1981 86.0995C93.9782 86.3432 93.6483 86.4116 93.4551 86.2481L93.148 85.9806C92.9548 85.8172 92.9855 85.4873 93.2045 85.2367C93.4244 84.993 93.7612 84.9236 93.9475 85.0881Z" fill="white"/>
<path d="M92.1969 86.9515L92.504 87.219C92.6902 87.3834 92.6664 87.7123 92.4465 87.956C92.2266 88.1997 91.8967 88.2681 91.7035 88.1046L91.3964 87.8371C91.2032 87.6737 91.2339 87.3438 91.4529 87.0932C91.6728 86.8495 92.0096 86.7801 92.1959 86.9446L92.1969 86.9515Z" fill="white"/>
<path d="M90.5494 88.694L90.8565 88.9615C91.0496 89.1249 91.0189 89.4548 90.8 89.7054C90.5801 89.9491 90.2432 90.0185 90.057 89.854L89.7499 89.5866C89.5567 89.4231 89.5874 89.0932 89.8064 88.8426C90.0253 88.5919 90.3631 88.5295 90.5494 88.694Z" fill="white"/>
<path d="M88.6881 90.6723L88.9952 90.9398C89.1814 91.1043 89.1577 91.4332 88.9377 91.6769C88.7178 91.9206 88.3879 91.9889 88.1947 91.8254L87.8807 91.559C87.6945 91.3945 87.7182 91.0656 87.9372 90.815C88.1571 90.5713 88.487 90.5029 88.6802 90.6664L88.6881 90.6723Z" fill="white"/>
<path d="M87.2624 92.1851L87.5765 92.4515C87.7627 92.616 87.7399 92.9518 87.52 93.1955C87.3001 93.4392 86.9702 93.5076 86.777 93.3441L86.4699 93.0766C86.2837 92.9122 86.3074 92.5833 86.5264 92.3327C86.7463 92.089 87.0831 92.0196 87.2694 92.1841L87.2624 92.1851Z" fill="white"/>
<path d="M85.5119 94.0485L85.826 94.3149C86.0122 94.4794 85.9884 94.8083 85.7695 95.0589C85.5496 95.3026 85.2128 95.372 85.0265 95.2075L84.7125 94.941C84.5193 94.7776 84.549 94.4408 84.769 94.1971C84.9958 93.9524 85.3188 93.885 85.5119 94.0485Z" fill="white"/>
<path d="M83.8646 95.791L84.1717 96.0585C84.3579 96.2229 84.3342 96.5518 84.1152 96.8025C83.8953 97.0462 83.5585 97.1155 83.3722 96.9511L83.0651 96.6836C82.8719 96.5201 82.9027 96.1902 83.1216 95.9396C83.3415 95.6959 83.6714 95.6275 83.8646 95.791Z" fill="white"/>
<path d="M82.0032 97.7693L82.3172 98.0358C82.5034 98.2002 82.4797 98.5291 82.2607 98.7798C82.0408 99.0235 81.7109 99.0918 81.5177 98.9284L81.2106 98.6609C81.0244 98.4964 81.0482 98.1675 81.2671 97.9169C81.487 97.6732 81.8169 97.6048 82.0101 97.7683L82.0032 97.7693Z" fill="white"/>
<path d="M80.1791 99.7141L80.4862 99.9815C80.6794 100.145 80.6487 100.475 80.4298 100.726C80.2098 100.969 79.88 101.038 79.6868 100.874L79.3727 100.608C79.1865 100.443 79.2103 100.114 79.4292 99.8636C79.6491 99.6199 79.986 99.5506 80.1722 99.715L80.1791 99.7141Z" fill="white"/>
<path d="M78.4278 101.571L78.7349 101.838C78.9212 102.002 78.8974 102.331 78.6785 102.582C78.4585 102.826 78.1217 102.895 77.9355 102.731L77.6204 102.457C77.4342 102.293 77.458 101.964 77.6769 101.713C77.8968 101.469 78.2267 101.401 78.4199 101.565L78.4278 101.571Z" fill="white"/>
<path d="M76.7872 103.312L77.1012 103.579C77.2944 103.742 77.2647 104.079 77.0448 104.323C76.8248 104.566 76.495 104.635 76.3018 104.471L75.9947 104.204C75.8015 104.04 75.8312 103.703 76.0511 103.46C76.278 103.215 76.6079 103.147 76.7941 103.311L76.7872 103.312Z" fill="white"/>
<path d="M74.9189 105.291L75.226 105.559C75.4192 105.722 75.3885 106.052 75.1695 106.303C74.9496 106.546 74.6197 106.615 74.4265 106.451L74.1125 106.185C73.9262 106.02 73.95 105.692 74.169 105.441C74.3889 105.197 74.7257 105.128 74.912 105.292L74.9189 105.291Z" fill="white"/>
<path d="M147.211 28.8309L147.19 28.8833C147.195 28.8685 147.199 28.8467 147.211 28.8309Z" fill="white"/>
<path d="M147.129 28.9489C147.129 28.9489 147.097 28.9676 147.076 28.9706C147.076 28.9706 147.097 28.9676 147.129 28.9489Z" fill="white"/>
<path d="M140.233 46.7043C140.005 46.9421 139.962 47.2809 140.149 47.4522L140.444 47.7356C140.624 47.908 140.956 47.8535 141.184 47.6157C141.412 47.378 141.457 47.0461 141.275 46.8668L140.98 46.5834C140.8 46.4111 140.468 46.4656 140.24 46.7033L140.233 46.7043Z" fill="#626568"/>
<path d="M138.466 48.5489C138.238 48.7867 138.201 49.1245 138.375 49.2978L138.67 49.5812C138.85 49.7535 139.182 49.699 139.41 49.4613C139.638 49.2235 139.681 48.8847 139.501 48.7124L139.206 48.429C139.026 48.2567 138.694 48.3111 138.466 48.5489Z" fill="#626568"/>
<path d="M136.816 50.2776C136.588 50.5154 136.552 50.8532 136.732 51.0256L137.027 51.3089C137.208 51.4813 137.539 51.4268 137.767 51.189C137.995 50.9513 138.04 50.6194 137.858 50.4401L137.563 50.1568C137.383 49.9844 137.05 50.0319 136.822 50.2697L136.816 50.2776Z" fill="#626568"/>
<path d="M134.932 52.2451C134.704 52.4828 134.667 52.8137 134.848 52.993L135.143 53.2763C135.323 53.4487 135.655 53.3942 135.883 53.1565C136.111 52.9187 136.149 52.5878 135.967 52.4085L135.672 52.1252C135.492 51.9528 135.159 52.0004 134.932 52.2451Z" fill="#626568"/>
<path d="M133.091 54.1708C132.864 54.4086 132.826 54.7395 133 54.9198L133.295 55.2031C133.476 55.3755 133.809 55.3279 134.036 55.0832C134.263 54.8455 134.308 54.5136 134.127 54.3343L133.831 54.051C133.651 53.8786 133.318 53.9261 133.091 54.1708Z" fill="#626568"/>
<path d="M131.317 56.0165C131.089 56.2542 131.053 56.592 131.233 56.7644L131.528 57.0477C131.708 57.2201 132.04 57.1656 132.268 56.9279C132.496 56.6901 132.534 56.3592 132.353 56.1869L132.058 55.9035C131.878 55.7312 131.546 55.7856 131.318 56.0234L131.317 56.0165Z" fill="#626568"/>
<path d="M129.662 57.7531C129.434 57.9908 129.396 58.3217 129.577 58.501L129.873 58.7843C130.053 58.9567 130.385 58.9022 130.613 58.6645C130.841 58.4267 130.877 58.0889 130.704 57.9155L130.409 57.6322C130.228 57.4598 129.896 57.5143 129.669 57.7521L129.662 57.7531Z" fill="#626568"/>
<path d="M127.783 59.7125C127.555 59.9503 127.512 60.2891 127.692 60.4615L127.987 60.7448C128.168 60.9172 128.5 60.8627 128.727 60.6249C128.955 60.3872 128.992 60.0493 128.819 59.876L128.523 59.5927C128.343 59.4203 128.011 59.4748 127.783 59.7125Z" fill="#626568"/>
<path d="M126.029 61.5482C125.801 61.7859 125.757 62.1178 125.938 62.2971L126.233 62.5804C126.413 62.7528 126.745 62.6983 126.973 62.4606C127.201 62.2228 127.238 61.885 127.057 61.7126L126.762 61.4293C126.582 61.2569 126.25 61.3114 126.022 61.5492L126.029 61.5482Z" fill="#626568"/>
<path d="M124.262 63.3928C124.034 63.6305 123.997 63.9683 124.171 64.1417L124.466 64.425C124.647 64.6043 124.979 64.5499 125.206 64.3052C125.434 64.0674 125.47 63.7296 125.29 63.5572L124.995 63.2739C124.814 63.1015 124.483 63.156 124.255 63.3938L124.262 63.3928Z" fill="#626568"/>
<path d="M122.605 65.1224C122.378 65.3602 122.334 65.699 122.514 65.8714L122.809 66.1547C122.99 66.3271 123.323 66.2795 123.549 66.0348C123.777 65.7971 123.814 65.4593 123.641 65.2859L123.345 65.0026C123.165 64.8302 122.833 64.8847 122.605 65.1224Z" fill="#626568"/>
<path d="M120.728 67.0889C120.5 67.3266 120.456 67.6585 120.644 67.8368L120.939 68.1202C121.119 68.2925 121.451 68.238 121.679 68.0003C121.907 67.7625 121.951 67.4237 121.763 67.2523L121.468 66.969C121.288 66.7966 120.955 66.8442 120.728 67.0889Z" fill="#626568"/>
<path d="M118.88 69.0157C118.653 69.2534 118.609 69.5922 118.789 69.7646L119.085 70.0479C119.265 70.2203 119.597 70.1658 119.825 69.9281C120.052 69.6903 120.096 69.3515 119.916 69.1791L119.621 68.8958C119.44 68.7234 119.107 68.771 118.88 69.0157Z" fill="#626568"/>
<path d="M117.113 70.8603C116.885 71.0981 116.848 71.4289 117.029 71.6083L117.324 71.8916C117.504 72.064 117.836 72.0095 118.064 71.7717C118.292 71.534 118.33 71.2031 118.148 71.0238L117.853 70.7404C117.673 70.5681 117.341 70.6226 117.113 70.8603Z" fill="#626568"/>
<path d="M115.457 72.5899C115.229 72.8277 115.184 73.1595 115.372 73.3379L115.668 73.6212C115.848 73.7936 116.18 73.7391 116.408 73.5013C116.636 73.2636 116.673 72.9327 116.492 72.7534L116.197 72.4701C116.016 72.2977 115.685 72.3522 115.457 72.5899Z" fill="#626568"/>
<path d="M113.579 74.5564C113.352 74.7942 113.307 75.1261 113.488 75.3054L113.784 75.5887C113.964 75.7611 114.296 75.7066 114.524 75.4688C114.751 75.2311 114.788 74.8933 114.608 74.7209L114.313 74.4376C114.132 74.2652 113.799 74.3127 113.573 74.5574L113.579 74.5564Z" fill="#626568"/>
<path d="M111.64 76.5813C111.412 76.8191 111.374 77.15 111.548 77.3303L111.844 77.6136C112.024 77.786 112.357 77.7384 112.585 77.5007C112.813 77.2629 112.849 76.9251 112.669 76.7527L112.374 76.4694C112.192 76.2901 111.861 76.3446 111.634 76.5893L111.64 76.5813Z" fill="#626568"/>
<path d="M109.865 78.4269C109.637 78.6646 109.6 78.9955 109.774 79.1758L110.069 79.4591C110.25 79.6315 110.583 79.584 110.809 79.3393C111.044 79.1005 111.082 78.7696 110.894 78.5913L110.598 78.308C110.418 78.1356 110.085 78.1832 109.858 78.4279L109.865 78.4269Z" fill="#626568"/>
<path d="M108.209 80.1566C107.981 80.3944 107.945 80.7322 108.118 80.9056L108.413 81.1889C108.593 81.3613 108.925 81.3068 109.153 81.069C109.381 80.8313 109.419 80.5004 109.237 80.3211L108.942 80.0378C108.762 79.8654 108.43 79.9199 108.201 80.1507L108.209 80.1566Z" fill="#626568"/>
<path d="M106.332 82.123C106.104 82.3608 106.06 82.6996 106.241 82.8719L106.536 83.1553C106.716 83.3276 107.048 83.2731 107.276 83.0354C107.504 82.7976 107.54 82.4598 107.36 82.2875L107.065 82.0041C106.885 81.8317 106.553 81.8862 106.325 82.124L106.332 82.123Z" fill="#626568"/>
<path d="M104.491 84.0488C104.263 84.2866 104.219 84.6185 104.407 84.7968L104.702 85.0801C104.882 85.2525 105.214 85.198 105.442 84.9602C105.67 84.7225 105.707 84.3847 105.533 84.2113L105.238 83.928C105.058 83.7556 104.726 83.8101 104.498 84.0478L104.491 84.0488Z" fill="#626568"/>
<path d="M102.718 85.9014C102.49 86.1392 102.446 86.478 102.626 86.6504L102.922 86.9337C103.102 87.1061 103.434 87.0516 103.662 86.8138C103.89 86.5761 103.926 86.2382 103.746 86.0659L103.451 85.7825C103.27 85.6102 102.938 85.6577 102.711 85.9024L102.718 85.9014Z" fill="#626568"/>
<path d="M101.061 87.6311C100.833 87.8688 100.796 88.1997 100.97 88.38L101.265 88.6633C101.446 88.8357 101.778 88.7881 102.005 88.5434C102.233 88.3057 102.27 87.9679 102.09 87.7955L101.794 87.5122C101.614 87.3398 101.282 87.3943 101.054 87.632L101.061 87.6311Z" fill="#626568"/>
<path d="M99.1831 89.5905C98.9552 89.8283 98.9186 90.1661 99.092 90.3395L99.3872 90.6228C99.5675 90.7952 99.9003 90.7476 100.127 90.5029C100.355 90.2652 100.392 89.9273 100.211 89.755L99.9162 89.4716C99.7359 89.2993 99.404 89.3538 99.1762 89.5915L99.1831 89.5905Z" fill="#626568"/>
<path d="M97.7426 91.0984C97.5147 91.3361 97.4702 91.668 97.6584 91.8463L97.9536 92.1296C98.1339 92.302 98.4658 92.2475 98.6936 92.0098C98.9215 91.772 98.9581 91.4342 98.7848 91.2608L98.4896 90.9775C98.3093 90.8051 97.9764 90.8527 97.7495 91.0974L97.7426 91.0984Z" fill="#626568"/>
<path d="M95.9762 92.9498C95.7483 93.1876 95.7107 93.5185 95.885 93.6988L96.1802 93.9821C96.3605 94.1545 96.6924 94.1 96.9202 93.8623C97.1481 93.6245 97.1917 93.2857 97.0045 93.1143L96.7092 92.831C96.5289 92.6586 96.1971 92.7131 95.9692 92.9508L95.9762 92.9498Z" fill="#626568"/>
<path d="M94.3129 94.6806C94.085 94.9184 94.0484 95.2562 94.2287 95.4286L94.5239 95.7119C94.7042 95.8843 95.0291 95.8308 95.2639 95.592C95.4918 95.3543 95.5294 95.0234 95.3481 94.8441L95.0529 94.5608C94.8726 94.3884 94.5407 94.4429 94.3129 94.6806Z" fill="#626568"/>
<path d="M92.4347 96.6401C92.2068 96.8779 92.1702 97.2157 92.3505 97.3881L92.6457 97.6714C92.826 97.8438 93.1589 97.7962 93.3867 97.5585C93.6146 97.3207 93.6582 96.9819 93.4779 96.8095L93.1826 96.5262C93.0023 96.3538 92.6705 96.4083 92.4426 96.6461L92.4347 96.6401Z" fill="#626568"/>
<path d="M90.595 98.5728C90.3671 98.8105 90.3295 99.1414 90.5098 99.3138L90.805 99.5971C90.9853 99.7695 91.3182 99.722 91.545 99.4773C91.7729 99.2395 91.8105 98.9086 91.6292 98.7293L91.334 98.446C91.1537 98.2736 90.8209 98.3212 90.594 98.5659L90.595 98.5728Z" fill="#626568"/>
<path d="M88.8207 100.418C88.5929 100.656 88.5493 100.995 88.7296 101.167L89.0248 101.451C89.2051 101.623 89.5369 101.569 89.7648 101.331C89.9926 101.093 90.0293 100.755 89.8559 100.582L89.5607 100.299C89.3804 100.126 89.0486 100.181 88.8207 100.418Z" fill="#626568"/>
<path d="M87.1644 102.148C86.9366 102.386 86.8999 102.724 87.0733 102.897L87.3685 103.18C87.5488 103.353 87.8807 103.298 88.1085 103.061C88.3364 102.823 88.38 102.484 88.1997 102.312L87.9044 102.028C87.7241 101.856 87.3913 101.903 87.1644 102.148Z" fill="#626568"/>
<path d="M85.2861 104.108C85.0513 104.346 85.0137 104.677 85.195 104.857L85.4902 105.14C85.6705 105.312 86.0033 105.265 86.2302 105.02C86.4581 104.782 86.4957 104.451 86.3144 104.272L86.0192 103.989C85.8389 103.816 85.507 103.871 85.2792 104.109L85.2861 104.108Z" fill="#626568"/>
<path d="M126.96 34.5826C126.74 34.8263 126.41 34.8947 126.217 34.7312L125.903 34.4647C125.717 34.3003 125.741 33.9714 125.961 33.7277C126.181 33.484 126.51 33.4156 126.704 33.5791L127.018 33.8456C127.204 34.01 127.18 34.3389 126.961 34.5896L126.96 34.5826Z" fill="#626568"/>
<path d="M125.25 36.4827C125.03 36.7264 124.701 36.7947 124.507 36.6312L124.2 36.3638C124.007 36.2003 124.038 35.8704 124.257 35.6198C124.477 35.3761 124.813 35.3067 125 35.4712L125.314 35.7377C125.5 35.9021 125.476 36.231 125.257 36.4817L125.25 36.4827Z" fill="#626568"/>
<path d="M123.65 38.2609C123.431 38.5046 123.101 38.573 122.907 38.4095L122.593 38.1431C122.407 37.9786 122.431 37.6497 122.65 37.3991C122.87 37.1554 123.207 37.086 123.393 37.2505L123.7 37.518C123.886 37.6824 123.862 38.0113 123.644 38.2619L123.65 38.2609Z" fill="#626568"/>
<path d="M121.831 40.2828C121.611 40.5265 121.274 40.5958 121.088 40.4314L120.78 40.1639C120.587 40.0005 120.618 39.6706 120.838 39.4269C121.057 39.1762 121.395 39.1138 121.581 39.2783L121.895 39.5448C122.081 39.7092 122.057 40.0381 121.838 40.2887L121.831 40.2828Z" fill="#626568"/>
<path d="M120.047 42.2642C119.828 42.5079 119.491 42.5772 119.304 42.4128L118.99 42.1463C118.804 41.9819 118.828 41.653 119.047 41.4023C119.267 41.1586 119.604 41.0893 119.79 41.2537L120.104 41.5202C120.297 41.6837 120.266 42.0136 120.047 42.2642Z" fill="#626568"/>
<path d="M118.337 44.1642C118.117 44.4079 117.788 44.4762 117.594 44.3128L117.287 44.0453C117.094 43.8818 117.124 43.545 117.344 43.3013C117.564 43.0576 117.894 42.9892 118.087 43.1527L118.394 43.4202C118.58 43.5846 118.556 43.9135 118.337 44.1642Z" fill="#626568"/>
<path d="M116.739 45.9493C116.519 46.193 116.182 46.2624 115.996 46.0979L115.682 45.8314C115.495 45.667 115.519 45.3381 115.739 45.0944C115.959 44.8507 116.296 44.7813 116.482 44.9458L116.789 45.2133C116.975 45.3777 116.952 45.7066 116.733 45.9572L116.739 45.9493Z" fill="#626568"/>
<path d="M114.919 47.9713C114.699 48.215 114.362 48.2843 114.176 48.1199L113.862 47.8534C113.675 47.6889 113.699 47.36 113.918 47.1094C114.138 46.8657 114.475 46.7964 114.661 46.9608L114.975 47.2273C115.161 47.3918 115.139 47.7276 114.919 47.9713Z" fill="#626568"/>
<path d="M113.221 49.8555C113.001 50.0992 112.671 50.1676 112.478 50.0041L112.171 49.7366C111.984 49.5722 112.008 49.2433 112.227 48.9926C112.447 48.7489 112.777 48.6806 112.97 48.8441L113.277 49.1115C113.47 49.275 113.441 49.6118 113.221 49.8555Z" fill="#626568"/>
<path d="M111.511 51.7556C111.291 51.9993 110.961 52.0677 110.768 51.9042L110.461 51.6367C110.268 51.4733 110.291 51.1444 110.517 50.8927C110.737 50.649 111.067 50.5807 111.26 50.7441L111.574 51.0106C111.761 51.1751 111.737 51.504 111.518 51.7546L111.511 51.7556Z" fill="#626568"/>
<path d="M109.911 53.5338C109.691 53.7775 109.361 53.8459 109.168 53.6824L108.854 53.416C108.668 53.2515 108.692 52.9226 108.911 52.672C109.13 52.4283 109.467 52.3589 109.654 52.5234L109.961 52.7909C110.154 52.9543 110.123 53.2842 109.904 53.5348L109.911 53.5338Z" fill="#626568"/>
<path d="M108.091 55.5557C107.871 55.7994 107.534 55.8687 107.348 55.7043L107.034 55.4378C106.841 55.2743 106.872 54.9445 107.091 54.6938C107.311 54.4501 107.647 54.3808 107.834 54.5452L108.141 54.8127C108.334 54.9762 108.303 55.306 108.084 55.5567L108.091 55.5557Z" fill="#626568"/>
<path d="M106.308 57.537C106.088 57.7807 105.758 57.8491 105.565 57.6856L105.251 57.4191C105.065 57.2547 105.089 56.9258 105.307 56.6751C105.527 56.4314 105.864 56.3621 106.05 56.5265L106.358 56.794C106.551 56.9575 106.52 57.2874 106.3 57.5311L106.308 57.537Z" fill="#626568"/>
<path d="M104.598 59.4371C104.378 59.6808 104.041 59.7502 103.855 59.5857L103.548 59.3182C103.355 59.1548 103.385 58.8249 103.604 58.5743C103.824 58.3306 104.154 58.2622 104.347 58.4257L104.661 58.6921C104.848 58.8566 104.824 59.1855 104.605 59.4361L104.598 59.4371Z" fill="#626568"/>
<path d="M102.999 61.2223C102.779 61.466 102.449 61.5343 102.256 61.3709L101.942 61.1044C101.756 60.9399 101.78 60.611 101.999 60.3604C102.219 60.1167 102.555 60.0473 102.742 60.2118L103.056 60.4783C103.242 60.6427 103.218 60.9716 102.999 61.2223Z" fill="#626568"/>
<path d="M101.179 63.2441C100.959 63.4878 100.623 63.5572 100.436 63.3927L100.129 63.1252C99.9361 62.9618 99.9668 62.6319 100.186 62.3813C100.406 62.1376 100.742 62.0682 100.929 62.2327L101.243 62.4992C101.429 62.6636 101.405 62.9925 101.186 63.2431L101.179 63.2441Z" fill="#626568"/>
<path d="M99.3039 65.3236C99.084 65.5673 98.7472 65.6366 98.561 65.4722L98.2459 65.1987C98.0597 65.0343 98.0835 64.7054 98.3024 64.4547C98.5293 64.2101 98.8591 64.1417 99.0454 64.3062L99.3594 64.5726C99.5457 64.7371 99.5219 65.066 99.303 65.3166L99.3039 65.3236Z" fill="#626568"/>
<path d="M97.594 67.2236C97.3741 67.4673 97.0442 67.5356 96.851 67.3722L96.5439 67.1047C96.3507 66.9412 96.3814 66.6113 96.6004 66.3607C96.8203 66.117 97.1502 66.0486 97.3434 66.2121L97.6584 66.4855C97.8516 66.649 97.8208 66.9789 97.6009 67.2226L97.594 67.2236Z" fill="#626568"/>
<path d="M95.9941 69.0018C95.7742 69.2455 95.4443 69.3139 95.2511 69.1504L94.9371 68.8839C94.7509 68.7195 94.7746 68.3906 94.9936 68.1399C95.2135 67.8962 95.5503 67.8269 95.7366 67.9913L96.0506 68.2578C96.2368 68.4223 96.2131 68.7512 95.9931 68.9949L95.9941 69.0018Z" fill="#626568"/>
<path d="M94.1754 71.0308C93.9555 71.2745 93.6187 71.3438 93.4324 71.1793L93.1253 70.9119C92.9321 70.7484 92.9619 70.4116 93.1818 70.1679C93.4017 69.9242 93.7385 69.8548 93.9248 70.0193L94.2388 70.2858C94.4251 70.4502 94.4023 70.7861 94.1824 71.0298L94.1754 71.0308Z" fill="#626568"/>
<path d="M92.3922 73.0119C92.1723 73.2556 91.8355 73.325 91.6492 73.1605L91.3421 72.8931C91.1489 72.7296 91.1797 72.3997 91.3986 72.1491C91.6185 71.9054 91.9484 71.837 92.1416 72.0005L92.4556 72.267C92.6419 72.4314 92.6181 72.7603 92.3991 73.011L92.3922 73.0119Z" fill="#626568"/>
<path d="M90.6823 74.9121C90.4624 75.1558 90.1325 75.2242 89.9393 75.0607L89.6322 74.7932C89.4391 74.6298 89.4628 74.3009 89.6897 74.0562C89.9096 73.8125 90.2465 73.7431 90.4327 73.9076L90.7398 74.1751C90.926 74.3395 90.9023 74.6684 90.6823 74.9121Z" fill="#626568"/>
<path d="M89.0822 76.6903C88.8623 76.934 88.5255 77.0034 88.3392 76.8389L88.0252 76.5724C87.832 76.409 87.8627 76.0791 88.0817 75.8285C88.3016 75.5848 88.6384 75.5154 88.8247 75.6799L89.1318 75.9473C89.3249 76.1108 89.2942 76.4407 89.0753 76.6913L89.0822 76.6903Z" fill="#626568"/>
<path d="M87.2624 78.7123C87.0425 78.956 86.7057 79.0253 86.5194 78.8608L86.2054 78.5944C86.0122 78.4309 86.0429 78.101 86.2619 77.8504C86.4818 77.6067 86.8117 77.5383 87.0049 77.7018L87.3189 77.9683C87.5051 78.1327 87.4814 78.4616 87.2614 78.7053L87.2624 78.7123Z" fill="#626568"/>
<path d="M85.8705 80.2626C85.6506 80.5063 85.3207 80.5746 85.1275 80.4112L84.8204 80.1437C84.6342 79.9792 84.6579 79.6503 84.8769 79.3997C85.0968 79.156 85.4336 79.0867 85.6199 79.2511L85.9339 79.5176C86.1201 79.682 86.0964 80.0109 85.8774 80.2616L85.8705 80.2626Z" fill="#626568"/>
<path d="M84.1606 82.1627C83.9407 82.4064 83.6039 82.4757 83.4176 82.3113L83.1026 82.0378C82.9094 81.8744 82.9402 81.5445 83.1591 81.2939C83.379 81.0502 83.7089 80.9818 83.9021 81.1453L84.2161 81.4118C84.4024 81.5762 84.3786 81.9051 84.1596 82.1557L84.1606 82.1627Z" fill="#626568"/>
<path d="M82.5606 83.9409C82.3407 84.1846 82.0108 84.2529 81.8176 84.0895L81.5105 83.822C81.3243 83.6575 81.3481 83.3286 81.568 83.0849C81.7879 82.8412 82.1178 82.7729 82.311 82.9363L82.6181 83.2038C82.8113 83.3673 82.7805 83.6972 82.5616 83.9478L82.5606 83.9409Z" fill="#626568"/>
<path d="M80.7408 85.9628C80.5209 86.2065 80.1841 86.2758 79.9979 86.1114L79.6907 85.8439C79.4976 85.6804 79.5204 85.3446 79.7472 85.0999C79.9672 84.8562 80.304 84.7868 80.4902 84.9513L80.8043 85.2178C80.9905 85.3822 80.9667 85.7111 80.7468 85.9548L80.7408 85.9628Z" fill="#626568"/>
<path d="M78.9577 87.9441C78.7378 88.1878 78.4079 88.2561 78.2148 88.0927L77.9076 87.8252C77.7214 87.6607 77.7452 87.3318 77.9641 87.0812C78.1841 86.8375 78.5209 86.7682 78.7071 86.9326L79.0142 87.2001C79.2005 87.3645 79.1767 87.6934 78.9577 87.9441Z" fill="#626568"/>
<path d="M77.2476 89.8442C77.0277 90.0879 76.6978 90.1562 76.5047 89.9928L76.1896 89.7193C76.0034 89.5549 76.0272 89.226 76.2461 88.9754C76.473 88.7307 76.8028 88.6623 76.9891 88.8268L77.2962 89.0942C77.4824 89.2587 77.4587 89.5876 77.2397 89.8382L77.2476 89.8442Z" fill="#626568"/>
<path d="M75.6488 91.6293C75.4288 91.873 75.092 91.9424 74.9058 91.7779L74.5987 91.5104C74.4124 91.346 74.4352 91.0102 74.6551 90.7665C74.882 90.5218 75.2119 90.4534 75.3981 90.6179L75.7052 90.8853C75.8984 91.0488 75.8677 91.3787 75.6488 91.6293Z" fill="#626568"/>
<path d="M73.8221 93.6522C73.6022 93.8959 73.2723 93.9642 73.0791 93.8008L72.772 93.5333C72.5788 93.3698 72.6095 93.0399 72.8295 92.7962C73.0563 92.5515 73.3793 92.4842 73.5725 92.6476L73.8796 92.9151C74.0727 93.0786 74.042 93.4085 73.8231 93.6591L73.8221 93.6522Z" fill="#626568"/>
<path d="M157.768 23.0277C157.768 23.0277 159.032 12.6576 148.707 14.4367L157.768 23.0277Z" fill="#8C64D8"/>
</g>
</g>
<defs>
<filter id="filter0_d_76_2856" x="13.842" y="9.09277" width="155.096" height="160.957" filterUnits="userSpaceOnUse" color-interpolation-filters="sRGB">
<feFlood flood-opacity="0" result="BackgroundImageFix"/>
<feColorMatrix in="SourceAlpha" type="matrix" values="0 0 0 0 0 0 0 0 0 0 0 0 0 0 0 0 0 0 127 0" result="hardAlpha"/>
<feOffset dx="2.44" dy="2.44"/>
<feColorMatrix type="matrix" values="0 0 0 0 0 0 0 0 0 0 0 0 0 0 0 0 0 0 0.25 0"/>
<feBlend mode="normal" in2="BackgroundImageFix" result="effect1_dropShadow_76_2856"/>
<feBlend mode="normal" in="SourceGraphic" in2="effect1_dropShadow_76_2856" result="shape"/>
</filter>
<clipPath id="clip0_76_2856">
<rect width="152.254" height="162.537" fill="white" transform="translate(160.903) rotate(81.8702)"/>
</clipPath>
</defs>
</svg>
