<svg width="1657" height="396" viewBox="0 0 1657 396" fill="none" xmlns="http://www.w3.org/2000/svg">
<path d="M572.952 0L559.68 13.2721V41.8073C559.68 42.2978 559.68 42.7882 559.68 43.2787C559.42 145.993 482.471 229.464 387.892 229.464C293.314 229.464 216.393 145.993 216.105 43.2787V13.2721L202.862 0H0V396H83.6144V83.6144H135.433C154.072 213.364 260.191 313.107 387.921 313.107C515.651 313.107 621.741 213.364 640.38 83.6144H692.199V396H775.813V0H572.923H572.952Z" fill="#8C64D8"/>
<path d="M1453.51 0L1440.24 13.2721V41.8073C1440.24 42.2978 1440.24 42.7882 1440.24 43.2787C1439.98 145.993 1363.03 229.464 1268.45 229.464C1173.87 229.464 1096.95 145.993 1096.66 43.2787V13.2721L1083.42 0H880.558V396H964.172V83.6144H1015.99C1034.63 213.364 1140.75 313.107 1268.48 313.107C1396.21 313.107 1502.3 213.364 1520.94 83.6144H1572.76V396H1656.37V0H1453.48H1453.51Z" fill="#8C64D8"/>
</svg>
