<?xml version="1.0" encoding="utf-8"?><svg xmlns="http://www.w3.org/2000/svg" xmlns:xlink="http://www.w3.org/1999/xlink"><symbol viewBox="0 0 64 64" id="arrow-down" xmlns="http://www.w3.org/2000/svg"><path d="m21.333 38.093 11.094 10.905L43.52 38.093M32.427 16v30.874"/></symbol><symbol viewBox="0 0 22 24" id="basket" xmlns="http://www.w3.org/2000/svg"><g clip-path="url(#ba)"><path d="M10.363 18.443a2.046 2.046 0 0 0-2.045 2.042 2.046 2.046 0 0 0 4.09 0 2.046 2.046 0 0 0-2.045-2.042Zm6.134 0a2.046 2.046 0 0 0-2.045 2.042 2.046 2.046 0 0 0 4.089 0 2.046 2.046 0 0 0-2.044-2.042Zm3.978-8.199L7.413 6.891a.614.614 0 0 0-.75.73L8.67 16.4h-.786L5.482 5.895a.613.613 0 0 0-.474-.464l-4.27-.882A.614.614 0 0 0 .489 5.75l3.885.802L6.797 17.15a.613.613 0 0 0 .598.477h12.07a.615.615 0 0 0 .607-.53l.858-6.175a.613.613 0 0 0-.455-.678Zm-8.14 3.91a.613.613 0 0 1-1.227 0v-2.696a.613.613 0 0 1 1.227 0v2.696Zm2.625 0a.613.613 0 0 1-1.227 0v-1.88a.613.613 0 0 1 1.227 0v1.88Zm2.625 0a.613.613 0 0 1-1.227 0v-1.226a.613.613 0 0 1 1.227 0v1.226Z"/></g><path fill-rule="evenodd" clip-rule="evenodd" d="M16.268 4.568a2.996 2.996 0 0 0-1.693-.523c-.627 0-1.21.193-1.693.523-.28-.843-.492-1.752-.492-2.383C12.39.98 13.37 0 14.575 0s2.185.98 2.185 2.185c0 .631-.212 1.54-.492 2.383Zm-4.722 2.274.024.006v-.011l-.024.005Zm4.972 1.217c-1.333-.33-2.766-.681-4.129-1.013a2.185 2.185 0 1 1 4.129 1.013Zm4.436 1.103c-.866-.217-2.155-.538-3.618-.9a2.995 2.995 0 0 0 .243-1.425c.87.18 1.762.45 2.308.765.596.344.969.928 1.067 1.56ZM9.869 6.439c-.36-.086-.706-.167-1.03-.243a2.19 2.19 0 0 1-.376-2.667 2.188 2.188 0 0 1 3.147-.7c.098.738.338 1.599.61 2.353a3.01 3.01 0 0 0-.449.774c-.628.113-1.305.278-1.902.483Zm10.124.075a3.43 3.43 0 0 1-.217.114c-.696-.295-1.587-.526-2.397-.672a3.01 3.01 0 0 0-.449-.774c.262-.727.494-1.553.599-2.273.095-.067.189-.128.278-.18a2.188 2.188 0 0 1 2.986.8 2.188 2.188 0 0 1-.8 2.985Z"/><defs><clipPath id="ba"><path transform="translate(0 3.064)" d="M0 0h20.936v20.936H0z"/></clipPath></defs></symbol><symbol viewBox="0 0 344.96 344.96" id="check" xmlns="http://www.w3.org/2000/svg"><g data-name="Слой 2"><path class="ccls-1" d="m321.85 86.24-40-23.11-23.1-40H212.5L172.48 0l-40 23.11H86.24l-23.11 40-40 23.1v46.21L0 172.48l23.11 40v46.21l40 23.11 23.11 40h46.21l40 23.1 40-23.11h46.21l23.11-40 40-23.11V212.5l23.11-40-23.11-40V86.24ZM156.91 243.07a16.79 16.79 0 0 1-23.34 0l-50.45-50.44a16.19 16.19 0 0 1 0-22.89l13.35-13.35a16.19 16.19 0 0 1 22.89 0l25.87 25.87 80.34-80.35a16.19 16.19 0 0 1 22.89 0l13.35 13.35a16.19 16.19 0 0 1 0 22.89Z" data-name="Capa 1"/></g></symbol><symbol viewBox="0 0 24 15" id="chevron-left" xmlns="http://www.w3.org/2000/svg"><path d="M24 7.5H1m0 0L7.571 14M1 7.5 7.571 1"/></symbol><symbol viewBox="0 0 24 15" id="chevron-right" xmlns="http://www.w3.org/2000/svg"><path d="M0 7.5h23m0 0L16.429 1M23 7.5 16.429 14"/></symbol><symbol viewBox="0 0 24 24" id="fb" xmlns="http://www.w3.org/2000/svg"><path d="M13.397 20.997v-8.196h2.765l.411-3.209h-3.176V7.548c0-.926.258-1.56 1.587-1.56h1.684v-2.86A22.108 22.108 0 0 0 14.201 3c-2.444 0-4.122 1.492-4.122 4.231v2.355H7.332v3.21h2.753v8.201h3.312Z"/></symbol><symbol viewBox="0 0 118 111" id="hands" xmlns="http://www.w3.org/2000/svg"><path d="m88.16 14-9.97 9.97c-.5-.07-1-.12-1.5-.15-3.57-1.45-9.93-2.47-17.38 3.27l-.17.15-2.45 2.46c-9.21-6.25-16.53-2.4-18.58-1.04l-9.18-9.18L0 48.41l10.97 10.97c.09 4.91 1.83 9.95 5.23 15.05 1.4 2.1 3.03 4.03 4.8 5.82 2.26 2.29 4.55 4.55 6.83 6.83-2.47 3.6-1.41 6.57 1.16 9.25 2.67 2.78 5.13 3.1 8.75 2.06.03 0 .07 0 .09.03 2.59 3.89 4.99 5.77 7.57 5.98 1.07 1.04 2.13 2.09 3.21 3.13 3.19 3.08 8.06 3.77 11.91 1.56 1.66-.95 1.95-1.74 2.8-3.09 6.51 5.46 10.86 5.56 15.97-2.1.02-.03.05-.04.09-.03 3.62 1.05 6.08.72 8.75-2.06 2.72-2.83 3.75-5.99.71-9.87-.02-.03-.81-1.05-.77-1.05 2.17.07 3.88-1.31 4.83-2.53 2.52-3.26 2.36-6.68-.34-10.04 1.18-1.19 2.38-2.36 3.55-3.55 1.77-1.79 3.4-3.73 4.8-5.82 3.4-5.09 5.14-10.13 5.23-15.05l10.96-10.97L88.17 14h-.01ZM22.74 76.05c-3.33-3.51-5.82-7.4-6.91-11.8-.24-.98-.42-1.99-.51-3.02-.08-.84-.11-1.71-.08-2.59L4.12 47.52l23.91-23.91 7.66 7.66.5.51-.03.08 3.7.31.24-.6c1.46-1 7.52-4.36 15.62 1.81l10.71 10.76c.54.54.83 1.26.83 2.03 0 .77-.3 1.49-.84 2.03l-.71.71a2.882 2.882 0 0 1-4.06 0l-10.95-11-2.66 1.86L51 43.24l1.28 1.29-3.78 3.78c-.31.31-.49.65-.58 1-.06.06-.12.13-.19.19-7.36 7.37-14.75 14.72-22.09 22.11-1.47 1.48-2.44 2.97-2.91 4.46l.01-.02Zm35.5 29.83c-.85.8-1.72 1.3-2.99 1.2-1.75-.14-2.96-1.47-3.81-2.31-.52-.51-1.03-1.03-1.55-1.54 1.21-.65 2.49-1.56 3.88-2.72.85 1.35 1.13 2.14 2.8 3.09.75.43 1.53.74 2.34.96-.14.54-.36 1.02-.67 1.31v.01Zm15.78-1.48c-1.64 1.93-3.52 2.1-5.92-.13l-1.11-1.05c.53-.34 1.03-.73 1.49-1.18 1.38-1.33 2.73-2.67 4.1-4 .14.15.29.29.44.44 2.26 2.26 2.56 4.09 1 5.92Zm11.44-5.98c-1.66 2.27-4.2 2.32-6.47.05-1.13-1.12-2.25-2.26-3.38-3.38 1.86-1.82 3.73-3.63 5.58-5.45 1.05 1.05 2.1 2.09 3.15 3.14 2.02 2.03 2.36 3.94 1.12 5.64Zm4.63-13.41c-.84 2.11-3.35 3.11-5.34 2.01-.2-.11-.38-.23-.56-.36 1.79-1.78 3.57-3.57 5.35-5.35.77 1.02 1.17 2.16.55 3.7Zm11.74-31.85c.03.88 0 1.74-.08 2.59-.1 1.03-.27 2.04-.51 3.02-1.1 4.42-3.61 8.32-6.96 11.84-4.54 4.78-9.3 9.35-13.97 14.01-4.89 4.89-9.77 9.81-14.7 14.66-.85.83-2.06 2.17-3.81 2.31-1.27.1-2.14-.39-2.98-1.2-.76-.72-1.01-2.54-.71-3.67.32-1.23 1.41-2.34 2.36-3.31 2.23-2.28 4.5-4.53 6.76-6.79 1.1-1.1 2.19-2.21 3.27-3.32 1.15-1.19 4.51-3.7 2.63-5.46-1.73-1.62-4.21 1.5-5.25 2.55-1.1 1.1-2.2 2.2-3.31 3.29-5.18 5.06-10.29 10.19-15.59 15.11-2.4 2.23-4.28 2.06-5.92.13-1.56-1.83-1.26-3.66 1-5.92 5.87-5.88 11.74-11.75 17.61-17.62.82-.82 1.54-1.36 1.69-2.62.11-.93-.23-1.75-1.19-1.9-1.62-.24-2.32.37-3.36 1.41C51.9 79.18 45 86.1 38.08 92.99c-2.27 2.26-4.81 2.21-6.47-.05-1.24-1.69-.9-3.61 1.12-5.64 7.01-7.04 14.03-14.06 21.07-21.07 1.15-1.14 2.05-2.42.64-3.74-1.34-1.26-2.5-.14-3.53.88-5.4 5.42-10.81 10.84-16.24 16.23-.72.72-1.48 1.45-2.36 1.94-1.99 1.09-4.5.1-5.34-2.01-.87-2.16.25-3.53 1.62-4.9 8.98-8.95 17.96-17.9 26.87-26.93l3.68 3.7a6.389 6.389 0 0 0 4.55 1.89c1.64 0 3.28-.62 4.53-1.87l.71-.7a6.421 6.421 0 0 0 1.89-4.53c0-1.61-.6-3.12-1.67-4.3l-8.16-8.24-1.6-1.61 2.18-2.19c3.37-2.57 6.38-3.47 8.86-3.59 4.54-.41 8.56 1.96 8.56 1.96l2.41-2.41 7.66-7.67 23.91 23.91-11.12 11.12-.02-.01Z"/></symbol><symbol viewBox="0 0 74 111" id="increase" xmlns="http://www.w3.org/2000/svg"><path d="M1.858 60.911c-.92-.07-1.71.57-1.84 1.47-.13.9.45 1.75 1.34 1.94 6.41 1.39 12.2 2.03 17.46 2.03 24.92 0 37.81-14.26 46.98-29.4l5.55 3.33a1.723 1.723 0 0 0 2.59-1.76l-3.57-21.08c-.09-.52-.41-.97-.87-1.23-.46-.25-1.02-.28-1.5-.08l-18.87 8c-.62.26-1.04.87-1.05 1.54-.02.68.36 1.3.97 1.6l5.69 2.78c-15.17 33.41-51.31 30.98-52.87 30.86h-.01Zm56.71-31.01c.36-.84 0-1.82-.83-2.22l-3.77-1.84 13.37-5.67 2.57 15.22-3.81-2.29c-.39-.24-.87-.31-1.31-.19-.45.11-.83.4-1.06.8-9.25 15.72-21.36 29.69-46.04 29.2 13.33-2.84 31.54-10.84 40.89-33.01h-.01Zm-51.17 53.05c-3.33 0-5.95 3.26-5.95 7.41v12.99c0 4.16 2.61 7.41 5.95 7.41h8.13c3.34 0 5.95-3.26 5.95-7.41v-12.99c0-4.16-2.61-7.41-5.95-7.41h-8.13Zm10.62 7.41v12.99c0 2.11-1.16 3.96-2.49 3.96h-8.13c-1.33 0-2.49-1.85-2.49-3.96v-12.99c0-2.11 1.16-3.96 2.49-3.96h8.13c1.33 0 2.49 1.85 2.49 3.96Zm13.96-19.59c-3.33 0-5.95 3.26-5.95 7.41v25.17c0 4.16 2.61 7.41 5.95 7.41h8.13c3.33 0 5.95-3.26 5.95-7.41v-25.17c0-4.16-2.61-7.41-5.95-7.41h-8.13Zm10.62 7.41v25.17c0 2.11-1.16 3.96-2.49 3.96h-8.13c-1.33 0-2.49-1.85-2.49-3.96v-25.17c0-2.11 1.16-3.96 2.49-3.96h8.13c1.33 0 2.49 1.85 2.49 3.96Zm24.52-22.03h-8.13c-3.33 0-5.95 3.26-5.95 7.41v39.79c0 4.16 2.61 7.41 5.95 7.41h8.13c3.33 0 5.95-3.26 5.95-7.41v-39.79c0-4.16-2.61-7.41-5.95-7.41Zm2.49 47.2c0 2.11-1.16 3.96-2.49 3.96h-8.13c-1.33 0-2.49-1.85-2.49-3.96v-39.79c0-2.11 1.16-3.96 2.49-3.96h8.13c1.33 0 2.49 1.85 2.49 3.96v39.79Z"/></symbol><symbol viewBox="0 0 24 24" id="instagram" xmlns="http://www.w3.org/2000/svg"><path d="M11.999 7.377a4.624 4.624 0 1 0 0 9.248 4.624 4.624 0 0 0 0-9.248Zm0 7.627a3.004 3.004 0 1 1 0-6.008 3.004 3.004 0 0 1 0 6.008Zm4.807-6.719a1.078 1.078 0 1 0 0-2.156 1.078 1.078 0 0 0 0 2.156Z"/><path d="M20.533 6.11A4.605 4.605 0 0 0 17.9 3.48a6.607 6.607 0 0 0-2.186-.42c-.963-.042-1.268-.054-3.71-.054s-2.755 0-3.71.054a6.554 6.554 0 0 0-2.184.42 4.6 4.6 0 0 0-2.633 2.63 6.585 6.585 0 0 0-.419 2.186c-.043.962-.056 1.267-.056 3.71 0 2.442 0 2.753.056 3.71.015.748.156 1.486.419 2.187a4.61 4.61 0 0 0 2.634 2.632 6.583 6.583 0 0 0 2.185.45c.963.042 1.268.055 3.71.055s2.755 0 3.71-.055a6.616 6.616 0 0 0 2.186-.42 4.613 4.613 0 0 0 2.633-2.632c.263-.7.404-1.438.419-2.186.043-.962.056-1.267.056-3.71s0-2.753-.056-3.71a6.583 6.583 0 0 0-.421-2.217Zm-1.218 9.533a5.046 5.046 0 0 1-.311 1.688 2.987 2.987 0 0 1-1.712 1.71c-.535.2-1.1.305-1.67.312-.95.044-1.218.055-3.654.055-2.438 0-2.687 0-3.655-.055a4.961 4.961 0 0 1-1.67-.311 2.984 2.984 0 0 1-1.718-1.711 5.08 5.08 0 0 1-.311-1.67c-.043-.95-.053-1.217-.053-3.653 0-2.437 0-2.686.053-3.655a5.038 5.038 0 0 1 .311-1.687c.305-.79.93-1.41 1.719-1.712a5.01 5.01 0 0 1 1.669-.311c.95-.043 1.218-.055 3.655-.055s2.687 0 3.654.055a4.96 4.96 0 0 1 1.67.31 2.99 2.99 0 0 1 1.712 1.713 5.06 5.06 0 0 1 .311 1.669c.043.95.054 1.218.054 3.655 0 2.436 0 2.698-.043 3.654h-.011v-.001Z"/></symbol><symbol viewBox="0 0 129 125" id="links" xmlns="http://www.w3.org/2000/svg"><path d="M113.21 20.34H89.54v14.98h23.67V20.34Zm-6.56 2-5.27 4.21-5.27-4.21h10.54Zm4.56 10.98H91.54V22.34h1.36l8.48 6.77 8.48-6.77h1.36v10.98h-.01Zm-54.15 71.17c.38 3.77 2.07 7.33 4.76 10.01.33.33.77.5 1.22.5a1.72 1.72 0 0 0 1.7-1.43 5.255 5.255 0 0 1 5.17-4.36h8.62c2.18 0 4.11 1.32 4.9 3.37.22.58.74.99 1.35 1.08.61.09 1.23-.15 1.61-.63a16.43 16.43 0 0 0 3.5-11.92c-.77-7.77-6.97-13.97-14.73-14.73-.58-.06-1.15-.09-1.69-.09-4.65 0-9.11 1.98-12.24 5.43-3.17 3.5-4.65 8.03-4.18 12.76l.01.01Zm16.42 2.23c-3.45 0-6.25-2.8-6.25-6.25s2.8-6.25 6.25-6.25 6.25 2.8 6.25 6.25-2.8 6.25-6.25 6.25Zm-9.67-12.68a13.069 13.069 0 0 1 11.02-4.22c6.13.6 11.03 5.5 11.63 11.63.25 2.55-.23 5.06-1.37 7.28a8.604 8.604 0 0 0-5.37-2.88 8.2 8.2 0 0 0 2.01-5.38c0-4.55-3.7-8.25-8.25-8.25s-8.25 3.7-8.25 8.25c0 2.19.86 4.17 2.25 5.65-2.07.6-3.84 1.95-4.97 3.77a13.057 13.057 0 0 1-2.02-5.74c-.37-3.75.8-7.34 3.31-10.1l.01-.01Zm-49.83-22.4c.5.49 1.24.63 1.88.37.64-.27 1.06-.9 1.06-1.59V68.9c0-5.33 3.99-9.8 9.29-10.4h.06c.4-.04.77-.06 1.12-.06h15.03c5.77 0 10.47 4.7 10.47 10.47v1.52a1.713 1.713 0 0 0 1.73 1.72c.45 0 .88-.17 1.21-.5C61.55 66 64.7 58.47 64.7 50.47c0-16.43-13.37-29.79-29.8-29.79S5.1 34.05 5.1 50.47c0 8.01 3.15 15.53 8.87 21.18l.01-.01ZM36.5 54.97h-3.19c-5.57-.78-9.88-5.57-9.88-11.35 0-6.33 5.15-11.48 11.47-11.48s11.48 5.15 11.48 11.48c0 5.79-4.31 10.58-9.89 11.35h.01Zm-1.59-30.85c14.52 0 26.34 11.82 26.34 26.34 0 5.71-1.82 11.15-5.18 15.66-1.2-5.93-6.18-10.5-12.31-11.08 3.41-2.65 5.62-6.78 5.62-11.42 0-7.98-6.5-14.48-14.48-14.48s-14.47 6.5-14.47 14.48c0 4.65 2.21 8.78 5.62 11.43-.04 0-.09 0-.13.01-.07 0-.14.01-.21.03-6.05.73-10.8 5.27-11.97 11.05a26.094 26.094 0 0 1-5.18-15.66c0-14.52 11.82-26.34 26.34-26.34l.01-.02Z"/><path d="M101.37 49.47c12.31 0 22.33-10.02 22.33-22.33 0-12.31-10.02-22.33-22.33-22.33-12.31 0-22.32 10.01-22.32 22.33 0 12.32 10.01 22.33 22.32 22.33Zm0-41.2c10.41 0 18.87 8.46 18.87 18.87s-8.46 18.87-18.87 18.87S82.5 37.54 82.5 27.14s8.46-18.87 18.87-18.87Z"/><path d="M0 50.46c0 19.25 15.66 34.92 34.91 34.92 5.17 0 10.34-1.18 15.02-3.42l6.83 7.6c-3.47 4.35-5.06 9.78-4.5 15.41 1 10.06 9.02 18.08 19.07 19.07a21.404 21.404 0 0 0 17.99-6.9c4.1-4.52 6.02-10.38 5.41-16.49-1-10.05-9.02-18.07-19.07-19.07-4.33-.43-8.73.5-12.55 2.63l-6.08-6.77c8.06-6.62 12.82-16.56 12.82-26.97 0-2.74-.34-5.5-1-8.21l8.28-2.93a27.142 27.142 0 0 0 24.27 14.99c14.98 0 27.16-12.19 27.16-27.16S116.38 0 101.4 0 74.24 12.19 74.24 27.16c0 1.41.12 2.85.35 4.28l-8.65 3.06c-5.98-11.55-17.98-18.94-31-18.94C15.69 15.56.03 31.22.03 50.47L0 50.46ZM34.91 19c12.2 0 23.41 7.2 28.56 18.35.37.81 1.3 1.2 2.14.9l11.5-4.06c.82-.29 1.3-1.15 1.11-2-.37-1.69-.56-3.39-.56-5.05 0-13.07 10.63-23.71 23.71-23.71s23.71 10.64 23.71 23.71-10.63 23.71-23.71 23.71c-9.47 0-18.02-5.64-21.78-14.37a1.728 1.728 0 0 0-2.16-.95l-11.26 3.98c-.87.31-1.34 1.23-1.08 2.11a31.42 31.42 0 0 1 1.28 8.82c0 9.94-4.83 19.42-12.91 25.35-.39.29-.65.73-.7 1.22-.05.48.11.97.43 1.33l8.28 9.21c.57.63 1.51.76 2.23.29 3.44-2.24 7.56-3.25 11.6-2.85 8.42.83 15.14 7.55 15.97 15.97.51 5.13-1.11 10.04-4.54 13.83a17.928 17.928 0 0 1-15.08 5.79c-8.42-.83-15.14-7.55-15.97-15.97-.5-5.13 1.11-10.04 4.47-13.76.05-.05.16-.15.2-.2.57-.66.57-1.64-.02-2.29l-8.73-9.71c-.34-.37-.81-.57-1.29-.57-.27 0-.55.06-.81.2a30.98 30.98 0 0 1-14.62 3.63c-17.34 0-31.45-14.11-31.45-31.46s14.11-31.46 31.45-31.46l.03.01Z"/></symbol><symbol viewBox="0 0 24 24" id="message" xmlns="http://www.w3.org/2000/svg"><path fill-rule="evenodd" clip-rule="evenodd" d="M3.879 5.879C3 6.757 3 8.172 3 11v2c0 2.828 0 4.243.879 5.121C4.757 19 6.172 19 9 19h6c2.828 0 4.243 0 5.121-.879C21 17.243 21 15.828 21 13v-2c0-2.828 0-4.243-.879-5.121C19.243 5 17.828 5 15 5H9c-2.828 0-4.243 0-5.121.879Zm2.676 2.289a1 1 0 0 0-1.11 1.664l5.446 3.63a2 2 0 0 0 2.218 0l5.446-3.63a1 1 0 0 0-1.11-1.664L12 11.798l-5.445-3.63Z"/></symbol><symbol viewBox="0 0 90 113" id="money" xmlns="http://www.w3.org/2000/svg"><path d="M0 92.07c0 7.1 1.68 12.18 5.13 15.51 4.46 4.3 11.39 5.2 19.64 5.2 2.86 0 5.87-.11 8.99-.22 3.49-.12 7.1-.25 10.84-.25 2.9 0 5.74.06 8.49.11 13.08.26 24.38.48 30.78-5.79 3.58-3.52 5.33-8.75 5.33-16.01 0-17.32-10.76-40.29-28.15-47.2-.2-.08-.42-.12-.64-.12H28.79c-.22 0-.44.04-.64.12C11.31 50.11 0 73.98 0 92.08v-.01Zm29.12-45.33h30.94c14.18 5.84 25.67 25.43 25.67 43.87 0 6.28-1.4 10.71-4.29 13.54-5.36 5.26-15.99 5.05-28.29 4.81-2.76-.05-5.62-.11-8.55-.11-3.8 0-7.44.13-10.96.26-11.35.4-21.16.76-26.11-4.02-2.74-2.64-4.07-6.9-4.07-13.02 0-20.85 13.21-40.16 25.67-45.33h-.01Zm1.76-6.59h27.08c.48 0 .93-.2 1.26-.55 5.04-5.38 8.05-16.37 8.05-23.87 0-.95-.77-1.73-1.73-1.73H23.29c-.95 0-1.73.77-1.73 1.73 0 7.51 3.01 18.49 8.05 23.88.33.35.78.55 1.26.55l.01-.01Zm32.88-22.69c-.39 6.33-2.82 14.76-6.58 19.24H31.65c-3.76-4.48-6.19-12.91-6.58-19.24h38.69Z"/><path d="M46.526 77.84h-3.12v1.86h6.06v.9h-6.06V86h-3.63v-5.4h-2.91v-.9h2.91v-1.86h-2.91v-3.3h2.91v-8.79h6.75c2.08 0 3.7.57 4.86 1.71 1.16 1.12 1.74 2.58 1.74 4.38 0 1.82-.58 3.28-1.74 4.38-1.16 1.08-2.78 1.62-4.86 1.62Zm-3.12-8.79v5.49h2.91c1.98 0 2.97-.91 2.97-2.73 0-.92-.27-1.61-.81-2.07-.52-.46-1.24-.69-2.16-.69h-2.91Z"/></symbol><symbol viewBox="0 0 24 24" id="phone" xmlns="http://www.w3.org/2000/svg"><path fill-rule="evenodd" clip-rule="evenodd" d="M6 7c0-1.886 0-2.828.586-3.414C7.172 3 8.114 3 10 3h4c1.886 0 2.828 0 3.414.586C18 4.172 18 5.114 18 7v10c0 1.886 0 2.828-.586 3.414C16.828 21 15.886 21 14 21h-4c-1.886 0-2.828 0-3.414-.586C6 19.828 6 18.886 6 17V7Zm3.5-2a.5.5 0 0 1 .5-.5h4a.5.5 0 0 1 0 1h-4a.5.5 0 0 1-.5-.5ZM12 19a1 1 0 1 0 0-2 1 1 0 0 0 0 2Z"/></symbol><symbol viewBox="0 0 31 31" id="pin" xmlns="http://www.w3.org/2000/svg"><path fill-rule="evenodd" clip-rule="evenodd" d="M15.901 25.638c1.752-.891 8.64-4.816 8.64-11.43a9.042 9.042 0 0 0-18.083 0c0 6.614 6.889 10.539 8.64 11.43a.88.88 0 0 0 .803 0Zm-.401-7.555a3.875 3.875 0 1 0 0-7.75 3.875 3.875 0 0 0 0 7.75Z"/></symbol><symbol viewBox="0 0 16 16" id="telegram" xmlns="http://www.w3.org/2000/svg"><path d="m14.629 3.698-2.012 9.618c-.152.679-.548.848-1.11.528l-3.066-2.29-1.48 1.442c-.163.166-.3.305-.616.305l.22-3.165 5.683-5.204c.247-.223-.054-.347-.384-.123L4.839 9.29l-3.024-.959c-.658-.208-.67-.667.137-.986L13.78 2.727c.548-.208 1.027.124.849.971Z"/></symbol><symbol viewBox="0 0 13 10" id="tick" xmlns="http://www.w3.org/2000/svg"><path d="m1 4.5 4.125 4.125L12 .375"/></symbol><symbol viewBox="0 0 16 16" id="viber" xmlns="http://www.w3.org/2000/svg"><path d="M8 1.335c-1.071.013-3.374.19-4.662 1.37-.958.948-1.292 2.35-1.331 4.084-.033 1.728-.072 4.973 3.058 5.856v1.346s-.02.538.337.648c.438.14.688-.275 1.105-.72l.778-.879c2.142.178 3.782-.232 3.97-.293.435-.139 2.883-.451 3.283-3.696.41-3.351-.2-5.463-1.301-6.418h-.007c-.332-.306-1.668-1.279-4.652-1.29 0 0-.222-.014-.578-.008Zm.037.942a7.02 7.02 0 0 1 .488.011c2.527.007 3.732.767 4.017 1.023.927.794 1.405 2.697 1.055 5.495-.332 2.713-2.317 2.885-2.685 3.002-.156.05-1.6.406-3.42.289 0 0-1.356 1.634-1.78 2.055-.067.074-.146.095-.196.085-.071-.018-.093-.107-.089-.229l.013-2.233c-2.655-.733-2.498-3.5-2.47-4.946.033-1.446.304-2.628 1.113-3.43 1.088-.982 3.043-1.115 3.953-1.122Zm.2 1.446a.166.166 0 1 0 0 .332 3.136 3.136 0 0 1 2.242.883c.606.588.9 1.378.912 2.411 0 .092.074.167.167.167V7.51a.167.167 0 0 0 .168-.165 3.588 3.588 0 0 0-1.009-2.646c-.66-.645-1.496-.977-2.48-.977Zm-2.198.382a.523.523 0 0 0-.342.067H5.69a2.61 2.61 0 0 0-.637.523 1.003 1.003 0 0 0-.256.525.71.71 0 0 0 .026.302l.01.006c.172.504.396.988.67 1.444a8.48 8.48 0 0 0 1.29 1.762l.015.022.024.017.015.018.017.015c.532.505 1.127.94 1.769 1.295.734.4 1.18.588 1.447.667v.004c.078.024.15.034.221.034.228-.016.444-.109.613-.262a2.53 2.53 0 0 0 .517-.638v-.004c.128-.241.085-.469-.1-.623-.37-.323-.77-.61-1.195-.857-.285-.155-.574-.061-.69.095l-.25.315c-.129.156-.361.134-.361.134l-.007.004C7.093 8.527 6.63 6.772 6.63 6.772s-.022-.239.139-.36l.312-.252c.15-.122.254-.41.094-.695a7.498 7.498 0 0 0-.856-1.194.475.475 0 0 0-.28-.167Zm2.486.495c-.221 0-.221.334.003.334A2.098 2.098 0 0 1 10 5.572 1.94 1.94 0 0 1 10.5 7a.168.168 0 0 0 .167.165l.007.009a.169.169 0 0 0 .167-.167c.015-.662-.191-1.218-.595-1.663C9.84 4.9 9.273 4.65 8.549 4.6h-.024Zm.274.898c-.228-.006-.236.335-.01.341.55.029.816.306.851.877a.166.166 0 0 0 .165.163h.007a.168.168 0 0 0 .16-.178c-.039-.744-.445-1.164-1.166-1.202H8.8Z"/></symbol><symbol viewBox="0 0 24 24" id="vk" xmlns="http://www.w3.org/2000/svg"><path d="M21.579 6.855c.14-.465 0-.806-.662-.806h-2.193c-.558 0-.813.295-.953.619 0 0-1.115 2.719-2.695 4.482-.51.513-.743.675-1.021.675-.139 0-.341-.162-.341-.627V6.855c0-.558-.161-.806-.626-.806H9.642c-.348 0-.558.258-.558.504 0 .528.79.65.871 2.138v3.228c0 .707-.127.836-.407.836-.743 0-2.551-2.73-3.624-5.853-.209-.607-.42-.852-.98-.852H2.752c-.627 0-.752.295-.752.619 0 .582.743 3.462 3.461 7.27 1.812 2.602 4.363 4.012 6.687 4.012 1.393 0 1.565-.313 1.565-.853v-1.966c0-.626.133-.752.574-.752.324 0 .882.164 2.183 1.417 1.486 1.486 1.732 2.153 2.567 2.153h2.192c.626 0 .939-.313.759-.931-.197-.615-.907-1.51-1.849-2.57-.512-.603-1.277-1.253-1.51-1.578-.325-.42-.231-.604 0-.976.001 0 2.672-3.761 2.95-5.04Z"/></symbol><symbol viewBox="0 0 16 16" id="whatsapp" xmlns="http://www.w3.org/2000/svg"><path fill-rule="evenodd" clip-rule="evenodd" d="M12.269 3.755A5.947 5.947 0 0 0 8.035 2 5.994 5.994 0 0 0 2.05 7.985a5.98 5.98 0 0 0 .799 2.992L2 14.077l3.173-.832c.877.477 1.86.728 2.86.728h.002a5.993 5.993 0 0 0 5.533-8.276 5.953 5.953 0 0 0-1.3-1.942Zm-4.234 9.208h-.002c-.89 0-1.765-.24-2.532-.694l-.181-.108-1.883.494.502-1.835-.118-.188a4.965 4.965 0 0 1-.76-2.647 4.982 4.982 0 0 1 6.88-4.597c.604.25 1.152.618 1.613 1.081a4.946 4.946 0 0 1 1.455 3.52 4.982 4.982 0 0 1-4.974 4.974Zm2.729-3.726c-.15-.075-.885-.436-1.022-.486-.137-.05-.236-.075-.336.074-.1.15-.387.486-.474.586-.087.1-.175.112-.324.038-.15-.075-.631-.233-1.203-.742a4.505 4.505 0 0 1-.832-1.036c-.087-.15-.009-.231.066-.306.068-.066.15-.174.224-.262.075-.087.1-.149.15-.249.05-.1.025-.187-.013-.262-.037-.075-.337-.811-.461-1.11-.121-.29-.244-.252-.336-.256a6.418 6.418 0 0 0-.286-.005.55.55 0 0 0-.4.186c-.137.15-.523.512-.523 1.248s.536 1.447.61 1.547c.075.1 1.055 1.61 2.555 2.258.358.154.636.246.853.315.358.114.684.098.942.06.287-.043.885-.362 1.01-.711.124-.35.124-.649.087-.711-.038-.063-.138-.101-.287-.176Z"/></symbol></svg>