<svg width="118" height="111" viewBox="0 0 118 111" fill="none" xmlns="http://www.w3.org/2000/svg">
<path d="M88.16 14L78.19 23.97C77.69 23.9 77.19 23.85 76.69 23.82C73.12 22.37 66.76 21.35 59.31 27.09L59.14 27.24L56.69 29.7C47.48 23.45 40.16 27.3 38.11 28.66L28.93 19.48L0 48.41L10.97 59.38C11.06 64.29 12.8 69.33 16.2 74.43C17.6 76.53 19.23 78.46 21 80.25C23.26 82.54 25.55 84.8 27.83 87.08C25.36 90.68 26.42 93.65 28.99 96.33C31.66 99.11 34.12 99.43 37.74 98.39C37.77 98.39 37.81 98.39 37.83 98.42C40.42 102.31 42.82 104.19 45.4 104.4C46.47 105.44 47.53 106.49 48.61 107.53C51.8 110.61 56.67 111.3 60.52 109.09C62.18 108.14 62.47 107.35 63.32 106C69.83 111.46 74.18 111.56 79.29 103.9C79.31 103.87 79.34 103.86 79.38 103.87C83 104.92 85.46 104.59 88.13 101.81C90.85 98.98 91.88 95.82 88.84 91.94C88.82 91.91 88.03 90.89 88.07 90.89C90.24 90.96 91.95 89.58 92.9 88.36C95.42 85.1 95.26 81.68 92.56 78.32C93.74 77.13 94.94 75.96 96.11 74.77C97.88 72.98 99.51 71.04 100.91 68.95C104.31 63.86 106.05 58.82 106.14 53.9L117.1 42.93L88.17 14H88.16ZM22.74 76.05C19.41 72.54 16.92 68.65 15.83 64.25C15.59 63.27 15.41 62.26 15.32 61.23C15.24 60.39 15.21 59.52 15.24 58.64L4.12 47.52L28.03 23.61L35.69 31.27L36.19 31.78L36.16 31.86L39.86 32.17L40.1 31.57C41.56 30.57 47.62 27.21 55.72 33.38L66.43 44.14C66.97 44.68 67.26 45.4 67.26 46.17C67.26 46.94 66.96 47.66 66.42 48.2L65.71 48.91C64.59 50.03 62.77 50.02 61.65 48.91L50.7 37.91L48.04 39.77L51 43.24L52.28 44.53C51.02 45.79 49.76 47.05 48.5 48.31C48.19 48.62 48.01 48.96 47.92 49.31C47.86 49.37 47.8 49.44 47.73 49.5C40.37 56.87 32.98 64.22 25.64 71.61C24.17 73.09 23.2 74.58 22.73 76.07L22.74 76.05ZM58.24 105.88C57.39 106.68 56.52 107.18 55.25 107.08C53.5 106.94 52.29 105.61 51.44 104.77C50.92 104.26 50.41 103.74 49.89 103.23C51.1 102.58 52.38 101.67 53.77 100.51C54.62 101.86 54.9 102.65 56.57 103.6C57.32 104.03 58.1 104.34 58.91 104.56C58.77 105.1 58.55 105.58 58.24 105.87V105.88ZM74.02 104.4C72.38 106.33 70.5 106.5 68.1 104.27C67.73 103.92 67.36 103.57 66.99 103.22C67.52 102.88 68.02 102.49 68.48 102.04C69.86 100.71 71.21 99.37 72.58 98.04C72.72 98.19 72.87 98.33 73.02 98.48C75.28 100.74 75.58 102.57 74.02 104.4ZM85.46 98.42C83.8 100.69 81.26 100.74 78.99 98.47C77.86 97.35 76.74 96.21 75.61 95.09C77.47 93.27 79.34 91.46 81.19 89.64C82.24 90.69 83.29 91.73 84.34 92.78C86.36 94.81 86.7 96.72 85.46 98.42ZM90.09 85.01C89.25 87.12 86.74 88.12 84.75 87.02C84.55 86.91 84.37 86.79 84.19 86.66C85.98 84.88 87.76 83.09 89.54 81.31C90.31 82.33 90.71 83.47 90.09 85.01ZM101.83 53.16C101.86 54.04 101.83 54.9 101.75 55.75C101.65 56.78 101.48 57.79 101.24 58.77C100.14 63.19 97.63 67.09 94.28 70.61C89.74 75.39 84.98 79.96 80.31 84.62C75.42 89.51 70.54 94.43 65.61 99.28C64.76 100.11 63.55 101.45 61.8 101.59C60.53 101.69 59.66 101.2 58.82 100.39C58.06 99.67 57.81 97.85 58.11 96.72C58.43 95.49 59.52 94.38 60.47 93.41C62.7 91.13 64.97 88.88 67.23 86.62C68.33 85.52 69.42 84.41 70.5 83.3C71.65 82.11 75.01 79.6 73.13 77.84C71.4 76.22 68.92 79.34 67.88 80.39C66.78 81.49 65.68 82.59 64.57 83.68C59.39 88.74 54.28 93.87 48.98 98.79C46.58 101.02 44.7 100.85 43.06 98.92C41.5 97.09 41.8 95.26 44.06 93C49.93 87.12 55.8 81.25 61.67 75.38C62.49 74.56 63.21 74.02 63.36 72.76C63.47 71.83 63.13 71.01 62.17 70.86C60.55 70.62 59.85 71.23 58.81 72.27C51.9 79.18 45 86.1 38.08 92.99C35.81 95.25 33.27 95.2 31.61 92.94C30.37 91.25 30.71 89.33 32.73 87.3C39.74 80.26 46.76 73.24 53.8 66.23C54.95 65.09 55.85 63.81 54.44 62.49C53.1 61.23 51.94 62.35 50.91 63.37C45.51 68.79 40.1 74.21 34.67 79.6C33.95 80.32 33.19 81.05 32.31 81.54C30.32 82.63 27.81 81.64 26.97 79.53C26.1 77.37 27.22 76 28.59 74.63C37.57 65.68 46.55 56.73 55.46 47.7L59.14 51.4C60.39 52.66 62.04 53.29 63.69 53.29C65.33 53.29 66.97 52.67 68.22 51.42L68.93 50.72C70.14 49.51 70.81 47.9 70.82 46.19C70.82 44.58 70.22 43.07 69.15 41.89L60.99 33.65L59.39 32.04L61.57 29.85C64.94 27.28 67.95 26.38 70.43 26.26C74.97 25.85 78.99 28.22 78.99 28.22L81.4 25.81L89.06 18.14L112.97 42.05L101.85 53.17L101.83 53.16Z" fill="white"/>
</svg>
