<svg width="74" height="111" viewBox="0 0 74 111" fill="none" xmlns="http://www.w3.org/2000/svg">
<path d="M1.85814 60.9113C0.938138 60.8413 0.148172 61.4813 0.0181724 62.3813C-0.111828 63.2813 0.468138 64.1313 1.35814 64.3213C7.76814 65.7113 13.5582 66.3513 18.8182 66.3513C43.7382 66.3513 56.6281 52.0913 65.7981 36.9513L71.3481 40.2813C71.9281 40.6313 72.6582 40.6112 73.2082 40.2312C73.7682 39.8512 74.0482 39.1813 73.9382 38.5213L70.3681 17.4413C70.2781 16.9213 69.9582 16.4713 69.4982 16.2113C69.0382 15.9613 68.4782 15.9313 67.9982 16.1313L49.1282 24.1313C48.5082 24.3913 48.0882 25.0012 48.0782 25.6712C48.0582 26.3512 48.4381 26.9713 49.0481 27.2713L54.7381 30.0512C39.5681 63.4612 3.42815 61.0313 1.86815 60.9113H1.85814ZM58.5682 29.9013C58.9282 29.0613 58.5681 28.0812 57.7381 27.6812L53.9682 25.8413L67.3382 20.1712L69.9082 35.3913L66.0981 33.1013C65.7081 32.8613 65.2281 32.7913 64.7881 32.9113C64.3381 33.0213 63.9581 33.3113 63.7281 33.7113C54.4781 49.4313 42.3682 63.4013 17.6882 62.9113C31.0182 60.0713 49.2282 52.0713 58.5782 29.9013H58.5682Z" fill="white"/>
<path d="M7.39825 82.9512C4.06825 82.9512 1.44824 86.2111 1.44824 90.3611V103.351C1.44824 107.511 4.05825 110.761 7.39825 110.761H15.5283C18.8683 110.761 21.4782 107.501 21.4782 103.351V90.3611C21.4782 86.2011 18.8683 82.9512 15.5283 82.9512H7.39825ZM18.0182 90.3611V103.351C18.0182 105.461 16.8583 107.311 15.5283 107.311H7.39825C6.06825 107.311 4.90826 105.461 4.90826 103.351V90.3611C4.90826 88.2511 6.06825 86.4012 7.39825 86.4012H15.5283C16.8583 86.4012 18.0182 88.2511 18.0182 90.3611Z" fill="white"/>
<path d="M31.9783 70.7712C28.6483 70.7712 26.0283 74.0312 26.0283 78.1812V103.351C26.0283 107.511 28.6383 110.761 31.9783 110.761H40.1083C43.4383 110.761 46.0583 107.501 46.0583 103.351V78.1812C46.0583 74.0212 43.4483 70.7712 40.1083 70.7712H31.9783ZM42.5983 78.1812V103.351C42.5983 105.461 41.4383 107.311 40.1083 107.311H31.9783C30.6483 107.311 29.4883 105.461 29.4883 103.351V78.1812C29.4883 76.0712 30.6483 74.2213 31.9783 74.2213H40.1083C41.4383 74.2213 42.5983 76.0712 42.5983 78.1812Z" fill="white"/>
<path d="M67.1181 56.1514H58.9881C55.6581 56.1514 53.0381 59.4113 53.0381 63.5613V103.351C53.0381 107.511 55.6481 110.761 58.9881 110.761H67.1181C70.4481 110.761 73.0681 107.501 73.0681 103.351V63.5613C73.0681 59.4013 70.4581 56.1514 67.1181 56.1514ZM69.6081 103.351C69.6081 105.461 68.4481 107.311 67.1181 107.311H58.9881C57.6581 107.311 56.4981 105.461 56.4981 103.351V63.5613C56.4981 61.4513 57.6581 59.6014 58.9881 59.6014H67.1181C68.4481 59.6014 69.6081 61.4513 69.6081 63.5613V103.351Z" fill="white"/>
</svg>
