<svg width="129" height="125" viewBox="0 0 129 125" fill="none" xmlns="http://www.w3.org/2000/svg">
<path d="M113.21 20.3401H89.54V35.3201H113.21V20.3401ZM106.65 22.3401L101.38 26.5501L96.11 22.3401H106.65ZM111.21 33.3201H91.54V22.3401H92.9L101.38 29.1101L109.86 22.3401H111.22V33.3201H111.21Z" fill="white"/>
<path d="M57.06 104.49C57.44 108.26 59.13 111.82 61.82 114.5C62.15 114.83 62.59 115 63.04 115C63.21 115 63.39 114.97 63.56 114.92C64.17 114.73 64.63 114.21 64.74 113.57C65.18 111.05 67.36 109.21 69.91 109.21H78.53C80.71 109.21 82.64 110.53 83.43 112.58C83.65 113.16 84.17 113.57 84.78 113.66C85.39 113.75 86.01 113.51 86.39 113.03C89.07 109.66 90.32 105.43 89.89 101.11C89.12 93.34 82.92 87.14 75.16 86.38C74.58 86.32 74.01 86.29 73.47 86.29C68.82 86.29 64.36 88.27 61.23 91.72C58.06 95.22 56.58 99.75 57.05 104.48L57.06 104.49ZM73.48 106.72C70.03 106.72 67.23 103.92 67.23 100.47C67.23 97.02 70.03 94.22 73.48 94.22C76.93 94.22 79.73 97.02 79.73 100.47C79.73 103.92 76.93 106.72 73.48 106.72ZM63.81 94.04C66.28 91.31 69.81 89.75 73.48 89.75C73.9 89.75 74.36 89.77 74.83 89.82C80.96 90.42 85.86 95.32 86.46 101.45C86.71 104 86.23 106.51 85.09 108.73C83.72 107.16 81.83 106.13 79.72 105.85C80.97 104.4 81.73 102.53 81.73 100.47C81.73 95.92 78.03 92.22 73.48 92.22C68.93 92.22 65.23 95.92 65.23 100.47C65.23 102.66 66.09 104.64 67.48 106.12C65.41 106.72 63.64 108.07 62.51 109.89C61.4 108.17 60.7 106.2 60.49 104.15C60.12 100.4 61.29 96.81 63.8 94.05L63.81 94.04Z" fill="white"/>
<path d="M13.98 71.64C14.48 72.13 15.22 72.2699 15.86 72.0099C16.5 71.7399 16.92 71.11 16.92 70.42V68.8999C16.92 63.5699 20.91 59.0999 26.21 58.4999C26.23 58.4999 26.25 58.4999 26.27 58.4999C26.67 58.4599 27.04 58.4399 27.39 58.4399H42.42C48.19 58.4399 52.89 63.1399 52.89 68.9099V70.4299C52.89 71.1299 53.31 71.76 53.95 72.02C54.16 72.11 54.39 72.1499 54.62 72.1499C55.07 72.1499 55.5 71.9799 55.83 71.6499C61.55 65.9999 64.7 58.4699 64.7 50.4699C64.7 34.0399 51.33 20.6799 34.9 20.6799C18.47 20.6799 5.09998 34.0499 5.09998 50.4699C5.09998 58.4799 8.24997 65.9999 13.97 71.6499L13.98 71.64ZM36.5 54.9699H33.31C27.74 54.1899 23.43 49.3999 23.43 43.6199C23.43 37.2899 28.58 32.14 34.9 32.14C41.22 32.14 46.38 37.2899 46.38 43.6199C46.38 49.4099 42.07 54.1999 36.49 54.9699H36.5ZM34.91 24.1199C49.43 24.1199 61.25 35.9399 61.25 50.4599C61.25 56.1699 59.43 61.6099 56.07 66.1199C54.87 60.1899 49.89 55.6199 43.76 55.0399C47.17 52.3899 49.38 48.2599 49.38 43.6199C49.38 35.6399 42.88 29.14 34.9 29.14C26.92 29.14 20.43 35.6399 20.43 43.6199C20.43 48.2699 22.64 52.4 26.05 55.05C26.01 55.05 25.96 55.0499 25.92 55.0599C25.85 55.0599 25.78 55.0699 25.71 55.0899C19.66 55.8199 14.91 60.36 13.74 66.14C10.38 61.63 8.56 56.1899 8.56 50.4799C8.56 35.9599 20.38 24.14 34.9 24.14L34.91 24.1199Z" fill="white"/>
<path d="M101.37 49.4701C113.68 49.4701 123.7 39.4501 123.7 27.1401C123.7 14.8301 113.68 4.81006 101.37 4.81006C89.0601 4.81006 79.05 14.8201 79.05 27.1401C79.05 39.4601 89.0601 49.4701 101.37 49.4701ZM101.37 8.27008C111.78 8.27008 120.24 16.7301 120.24 27.1401C120.24 37.5501 111.78 46.0101 101.37 46.0101C90.9601 46.0101 82.5001 37.5401 82.5001 27.1401C82.5001 16.7401 90.9601 8.27008 101.37 8.27008Z" fill="white"/>
<path d="M0 50.46C0 69.71 15.66 85.38 34.91 85.38C40.08 85.38 45.25 84.2 49.93 81.96L56.76 89.56C53.29 93.91 51.7 99.34 52.26 104.97C53.26 115.03 61.28 123.05 71.33 124.04C72.03 124.11 72.76 124.15 73.5 124.15C79.52 124.15 85.28 121.59 89.32 117.14C93.42 112.62 95.34 106.76 94.73 100.65C93.73 90.6 85.71 82.58 75.66 81.58C71.33 81.15 66.93 82.08 63.11 84.21L57.03 77.44C65.09 70.82 69.85 60.88 69.85 50.47C69.85 47.73 69.51 44.97 68.85 42.26L77.13 39.33C81.73 48.49 91.08 54.32 101.4 54.32C116.38 54.32 128.56 42.13 128.56 27.16C128.56 12.19 116.38 0 101.4 0C86.42 0 74.24 12.19 74.24 27.16C74.24 28.57 74.36 30.01 74.59 31.44L65.94 34.5C59.96 22.95 47.96 15.56 34.94 15.56C15.69 15.56 0.0299988 31.22 0.0299988 50.47L0 50.46ZM34.91 19C47.11 19 58.32 26.2 63.47 37.35C63.84 38.16 64.77 38.55 65.61 38.25L77.11 34.19C77.93 33.9 78.41 33.04 78.22 32.19C77.85 30.5 77.66 28.8 77.66 27.14C77.66 14.07 88.29 3.42999 101.37 3.42999C114.45 3.42999 125.08 14.07 125.08 27.14C125.08 40.21 114.45 50.85 101.37 50.85C91.9 50.85 83.35 45.21 79.59 36.48C79.23 35.64 78.28 35.23 77.43 35.53L66.17 39.51C65.3 39.82 64.83 40.74 65.09 41.62C65.94 44.53 66.37 47.49 66.37 50.44C66.37 60.38 61.54 69.86 53.46 75.79C53.07 76.08 52.81 76.52 52.76 77.01C52.71 77.49 52.87 77.98 53.19 78.34L61.47 87.55C62.04 88.18 62.98 88.31 63.7 87.84C67.14 85.6 71.26 84.59 75.3 84.99C83.72 85.82 90.44 92.54 91.27 100.96C91.78 106.09 90.16 111 86.73 114.79C83.35 118.52 78.52 120.67 73.47 120.67C72.85 120.67 72.24 120.64 71.65 120.58C63.23 119.75 56.51 113.03 55.68 104.61C55.18 99.48 56.79 94.57 60.15 90.85C60.2 90.8 60.31 90.7 60.35 90.65C60.92 89.99 60.92 89.01 60.33 88.36L51.6 78.65C51.26 78.28 50.79 78.08 50.31 78.08C50.04 78.08 49.76 78.14 49.5 78.28C44.94 80.69 40.02 81.91 34.88 81.91C17.54 81.91 3.43002 67.8 3.43002 50.45C3.43002 33.1 17.54 18.99 34.88 18.99L34.91 19Z" fill="white"/>
</svg>
