<svg width="90" height="113" viewBox="0 0 90 113" fill="none" xmlns="http://www.w3.org/2000/svg">
<path d="M0 92.07C0 99.17 1.68 104.25 5.13 107.58C9.59 111.88 16.52 112.78 24.77 112.78C27.63 112.78 30.64 112.67 33.76 112.56C37.25 112.44 40.86 112.31 44.6 112.31C47.5 112.31 50.34 112.37 53.09 112.42C66.17 112.68 77.47 112.9 83.87 106.63C87.45 103.11 89.2 97.88 89.2 90.62C89.2 73.3 78.44 50.3301 61.05 43.4201C60.85 43.3401 60.63 43.3 60.41 43.3H28.79C28.57 43.3 28.35 43.3401 28.15 43.4201C11.31 50.1101 0 73.9801 0 92.0801V92.07ZM29.12 46.7401H60.06C74.24 52.5801 85.73 72.1701 85.73 90.6101C85.73 96.8901 84.33 101.32 81.44 104.15C76.08 109.41 65.45 109.2 53.15 108.96C50.39 108.91 47.53 108.85 44.6 108.85C40.8 108.85 37.16 108.98 33.64 109.11C22.29 109.51 12.48 109.87 7.53003 105.09C4.79003 102.45 3.46002 98.19 3.46002 92.07C3.46002 71.22 16.67 51.9101 29.13 46.7401H29.12Z" fill="white"/>
<path d="M30.8801 40.15H57.9601C58.4401 40.15 58.89 39.95 59.22 39.6C64.26 34.22 67.2701 23.23 67.2701 15.73C67.2701 14.78 66.5 14 65.54 14H23.29C22.34 14 21.5601 14.77 21.5601 15.73C21.5601 23.24 24.57 34.22 29.61 39.61C29.94 39.96 30.3901 40.16 30.8701 40.16L30.8801 40.15ZM63.7601 17.46C63.3701 23.79 60.9401 32.22 57.1801 36.7H31.6501C27.8901 32.22 25.4601 23.79 25.0701 17.46H63.7501H63.7601Z" fill="white"/>
<path d="M46.5261 77.84H43.4061V79.7H49.4661V80.6H43.4061V86H39.7761V80.6H36.8661V79.7H39.7761V77.84H36.8661V74.54H39.7761V65.75H46.5261C48.6061 65.75 50.2261 66.32 51.3861 67.46C52.5461 68.58 53.1261 70.04 53.1261 71.84C53.1261 73.66 52.5461 75.12 51.3861 76.22C50.2261 77.3 48.6061 77.84 46.5261 77.84ZM43.4061 69.05V74.54H46.3161C48.2961 74.54 49.2861 73.63 49.2861 71.81C49.2861 70.89 49.0161 70.2 48.4761 69.74C47.9561 69.28 47.2361 69.05 46.3161 69.05H43.4061Z" fill="white"/>
</svg>
