<svg width="31" height="31" viewBox="0 0 31 31" fill="none" xmlns="http://www.w3.org/2000/svg">
<path fill-rule="evenodd" clip-rule="evenodd" d="M15.9012 25.6382C17.6528 24.747 24.5416 20.822 24.5416 14.2084C24.5416 9.21484 20.4935 5.16675 15.4999 5.16675C10.5063 5.16675 6.45825 9.21484 6.45825 14.2084C6.45825 20.822 13.347 24.747 15.0986 25.6382C15.3525 25.7673 15.6473 25.7673 15.9012 25.6382ZM15.4999 18.0834C17.64 18.0834 19.3749 16.3485 19.3749 14.2084C19.3749 12.0683 17.64 10.3334 15.4999 10.3334C13.3598 10.3334 11.6249 12.0683 11.6249 14.2084C11.6249 16.3485 13.3598 18.0834 15.4999 18.0834Z" fill="#8B64D9"/>
</svg>
